Bungee-Hairline.ufo
<glyph name="exclam" format="1">
  <advance width="424"/>
  <unicode hex="0021"/>
  <outline>
    <contour>
      <point x="207.0" y="630" type="line"/>
      <point x="207.0" y="352" type="line"/>
      <point x="217.0" y="352" type="line"/>
      <point x="217.0" y="630" type="line"/>
    </contour>
    <contour>
      <point x="217.0" y="80" type="line"/>
      <point x="217.0" y="123" type="line"/>
      <point x="207.0" y="123" type="line"/>
      <point x="207.0" y="80" type="line"/>
    </contour>
  </outline>
</glyph>
<glyph name="quotedbl" format="1">
  <advance width="646"/>
  <unicode hex="0022"/>
  <outline>
    <contour>
      <point x="163.0" y="630" type="line"/>
      <point x="163.0" y="435" type="line"/>
      <point x="173.0" y="435" type="line"/>
      <point x="173.0" y="630" type="line"/>
    </contour>
    <contour>
      <point x="473.0" y="630" type="line"/>
      <point x="473.0" y="435" type="line"/>
      <point x="483.0" y="435" type="line"/>
      <point x="483.0" y="630" type="line"/>
    </contour>
  </outline>
</glyph>
<glyph name="numbersign" format="1">
  <advance width="750"/>
  <unicode hex="0023"/>
  <outline>
    <contour>
      <point x="534.0" y="495" type="line"/>
      <point x="496.0" y="230" type="line"/>
      <point x="217.0" y="230" type="line"/>
      <point x="255.0" y="495" type="line"/>
    </contour>
    <contour>
      <point x="187.0" y="90" type="line"/>
      <point x="197.0" y="90" type="line"/>
      <point x="216.0" y="220" type="line"/>
      <point x="495.0" y="220" type="line"/>
      <point x="476.0" y="90" type="line"/>
      <point x="486.0" y="90" type="line"/>
      <point x="505.0" y="220" type="line"/>
      <point x="589.0" y="220" type="line"/>
      <point x="589.0" y="230" type="line"/>
      <point x="506.0" y="230" type="line"/>
      <point x="544.0" y="495" type="line"/>
      <point x="625.0" y="495" type="line"/>
      <point x="625.0" y="505" type="line"/>
      <point x="545.0" y="505" type="line"/>
      <point x="563.0" y="630" type="line"/>
      <point x="553.0" y="630" type="line"/>
      <point x="535.0" y="505" type="line"/>
      <point x="256.0" y="505" type="line"/>
      <point x="274.0" y="630" type="line"/>
      <point x="264.0" y="630" type="line"/>
      <point x="246.0" y="505" type="line"/>
      <point x="161.0" y="505" type="line"/>
      <point x="161.0" y="495" type="line"/>
      <point x="245.0" y="495" type="line"/>
      <point x="207.0" y="230" type="line"/>
      <point x="125.0" y="230" type="line"/>
      <point x="125.0" y="220" type="line"/>
      <point x="206.0" y="220" type="line"/>
    </contour>
  </outline>
</glyph>
<glyph name="percent" format="1">
  <advance width="1031"/>
  <unicode hex="0025"/>
  <outline>
    <contour>
      <point x="331.0" y="583" type="line" smooth="yes"/>
      <point x="331.0" y="641"/>
      <point x="300.0" y="663"/>
      <point x="221.0" y="663" type="curve" smooth="yes"/>
      <point x="143.0" y="663"/>
      <point x="110.0" y="641"/>
      <point x="110.0" y="583" type="curve" smooth="yes"/>
      <point x="110.0" y="437" type="line" smooth="yes"/>
      <point x="110.0" y="379"/>
      <point x="143.0" y="358"/>
      <point x="221.0" y="358" type="curve" smooth="yes"/>
      <point x="300.0" y="358"/>
      <point x="331.0" y="379"/>
      <point x="331.0" y="437" type="curve" smooth="yes"/>
    </contour>
    <contour>
      <point x="221.0" y="368" type="curve" smooth="yes"/>
      <point x="153.0" y="368"/>
      <point x="120.0" y="385"/>
      <point x="120.0" y="437" type="curve" smooth="yes"/>
      <point x="120.0" y="583" type="line" smooth="yes"/>
      <point x="120.0" y="635"/>
      <point x="153.0" y="653"/>
      <point x="221.0" y="653" type="curve" smooth="yes"/>
      <point x="290.0" y="653"/>
      <point x="321.0" y="635"/>
      <point x="321.0" y="583" type="curve" smooth="yes"/>
      <point x="321.0" y="437" type="line" smooth="yes"/>
      <point x="321.0" y="385"/>
      <point x="290.0" y="368"/>
    </contour>
    <contour>
      <point x="459.0" y="90" type="line"/>
      <point x="592.0" y="630" type="line"/>
      <point x="582.0" y="630" type="line"/>
      <point x="449.0" y="90" type="line"/>
    </contour>
    <contour>
      <point x="931.0" y="280" type="line" smooth="yes"/>
      <point x="931.0" y="338"/>
      <point x="900.0" y="360"/>
      <point x="821.0" y="360" type="curve" smooth="yes"/>
      <point x="743.0" y="360"/>
      <point x="710.0" y="338"/>
      <point x="710.0" y="280" type="curve" smooth="yes"/>
      <point x="710.0" y="134" type="line" smooth="yes"/>
      <point x="710.0" y="76"/>
      <point x="743.0" y="55"/>
      <point x="821.0" y="55" type="curve" smooth="yes"/>
      <point x="900.0" y="55"/>
      <point x="931.0" y="76"/>
      <point x="931.0" y="134" type="curve" smooth="yes"/>
    </contour>
    <contour>
      <point x="821.0" y="65" type="curve" smooth="yes"/>
      <point x="753.0" y="65"/>
      <point x="720.0" y="82"/>
      <point x="720.0" y="134" type="curve" smooth="yes"/>
      <point x="720.0" y="280" type="line" smooth="yes"/>
      <point x="720.0" y="332"/>
      <point x="753.0" y="350"/>
      <point x="821.0" y="350" type="curve" smooth="yes"/>
      <point x="890.0" y="350"/>
      <point x="921.0" y="332"/>
      <point x="921.0" y="280" type="curve" smooth="yes"/>
      <point x="921.0" y="134" type="line" smooth="yes"/>
      <point x="921.0" y="82"/>
      <point x="890.0" y="65"/>
    </contour>
  </outline>
</glyph>
<glyph name="three" format="1">
  <advance width="637"/>
  <unicode hex="0033"/>
  <outline>
    <contour>
      <point x="220.0" y="359" type="line"/>
      <point x="372.0" y="359" type="line" smooth="yes"/>
      <point x="449.0" y="359"/>
      <point x="480.0" y="326"/>
      <point x="480.0" y="259" type="curve" smooth="yes"/>
      <point x="480.0" y="190" type="line" smooth="yes"/>
      <point x="480.0" y="135"/>
      <point x="459.0" y="100"/>
      <point x="359.0" y="100" type="curve" smooth="yes"/>
      <point x="139.0" y="100" type="line"/>
      <point x="139.0" y="90" type="line"/>
      <point x="359.0" y="90" type="line" smooth="yes"/>
      <point x="471.0" y="90"/>
      <point x="490.0" y="131"/>
      <point x="490.0" y="190" type="curve" smooth="yes"/>
      <point x="490.0" y="259" type="line" smooth="yes"/>
      <point x="490.0" y="329"/>
      <point x="457.0" y="367"/>
      <point x="374.0" y="367" type="curve" smooth="yes"/>
      <point x="358.0" y="367" type="line"/>
      <point x="418.0" y="380"/>
      <point x="424.0" y="422"/>
      <point x="424.0" y="460" type="curve" smooth="yes"/>
      <point x="424.0" y="524" type="line" smooth="yes"/>
      <point x="424.0" y="582"/>
      <point x="404.0" y="630"/>
      <point x="293.0" y="630" type="curve" smooth="yes"/>
      <point x="139.0" y="630" type="line"/>
      <point x="139.0" y="620" type="line"/>
      <point x="293.0" y="620" type="line"/>
      <point x="391.0" y="620"/>
      <point x="414.0" y="580"/>
      <point x="414.0" y="528" type="curve" smooth="yes"/>
      <point x="414.0" y="460" type="line" smooth="yes"/>
      <point x="414.0" y="412"/>
      <point x="404.0" y="369"/>
      <point x="303.0" y="369" type="curve" smooth="yes"/>
      <point x="220.0" y="369" type="line"/>
    </contour>
  </outline>
</glyph>
<glyph name="nine" format="1">
  <advance width="693"/>
  <unicode hex="0039"/>
  <outline>
    <contour>
      <point x="213.0" y="90" type="line"/>
      <point x="389.0" y="90" type="line" smooth="yes"/>
      <point x="474.0" y="90"/>
      <point x="523.0" y="116"/>
      <point x="523.0" y="205" type="curve" smooth="yes"/>
      <point x="523.0" y="533" type="line" smooth="yes"/>
      <point x="523.0" y="636"/>
      <point x="440.0" y="649"/>
      <point x="332.0" y="649" type="curve" smooth="yes"/>
      <point x="232.0" y="649"/>
      <point x="155.0" y="634"/>
      <point x="155.0" y="533" type="curve" smooth="yes"/>
      <point x="155.0" y="445" type="line" smooth="yes"/>
      <point x="155.0" y="342"/>
      <point x="231.0" y="337"/>
      <point x="329.0" y="337" type="curve" smooth="yes"/>
      <point x="418.0" y="337"/>
      <point x="489.0" y="340"/>
      <point x="513.0" y="393" type="curve"/>
      <point x="513.0" y="205" type="line" smooth="yes"/>
      <point x="513.0" y="122"/>
      <point x="466.0" y="100"/>
      <point x="389.0" y="100" type="curve" smooth="yes"/>
      <point x="213.0" y="100" type="line"/>
    </contour>
    <contour>
      <point x="329.0" y="347" type="curve" smooth="yes"/>
      <point x="241.0" y="347"/>
      <point x="165.0" y="348"/>
      <point x="165.0" y="445" type="curve" smooth="yes"/>
      <point x="165.0" y="533" type="line" smooth="yes"/>
      <point x="165.0" y="628"/>
      <point x="240.0" y="639"/>
      <point x="332.0" y="639" type="curve" smooth="yes"/>
      <point x="430.0" y="639"/>
      <point x="513.0" y="630"/>
      <point x="513.0" y="533" type="curve" smooth="yes"/>
      <point x="513.0" y="442" type="line"/>
      <point x="513.0" y="345"/>
      <point x="418.0" y="347"/>
    </contour>
  </outline>
</glyph>
<glyph name="E" format="1">
  <advance width="654"/>
  <unicode hex="0045"/>
  <outline>
    <contour>
      <point x="515.0" y="100" type="line"/>
      <point x="188.0" y="100" type="line"/>
      <point x="188.0" y="359" type="line"/>
      <point x="434.0" y="359" type="line"/>
      <point x="434.0" y="369" type="line"/>
      <point x="188.0" y="369" type="line"/>
      <point x="188.0" y="620" type="line"/>
      <point x="515.0" y="620" type="line"/>
      <point x="515.0" y="630" type="line"/>
      <point x="178.0" y="630" type="line"/>
      <point x="178.0" y="90" type="line"/>
      <point x="515.0" y="90" type="line"/>
    </contour>
  </outline>
</glyph>
<glyph name="F" format="1">
  <advance width="618"/>
  <unicode hex="0046"/>
  <outline>
    <contour>
      <point x="178.0" y="90" type="line"/>
      <point x="188.0" y="90" type="line"/>
      <point x="188.0" y="324" type="line"/>
      <point x="416.0" y="324" type="line"/>
      <point x="416.0" y="334" type="line"/>
      <point x="188.0" y="334" type="line"/>
      <point x="188.0" y="620" type="line"/>
      <point x="497.0" y="620" type="line"/>
      <point x="497.0" y="630" type="line"/>
      <point x="178.0" y="630" type="line"/>
    </contour>
  </outline>
</glyph>
<glyph name="I" format="1">
  <advance width="605"/>
  <unicode hex="0049"/>
  <outline>
    <contour>
      <point x="461.0" y="90" type="line"/>
      <point x="461.0" y="100" type="line"/>
      <point x="308.0" y="100" type="line"/>
      <point x="308.0" y="620" type="line"/>
      <point x="461.0" y="620" type="line"/>
      <point x="461.0" y="630" type="line"/>
      <point x="143.0" y="630" type="line"/>
      <point x="143.0" y="620" type="line"/>
      <point x="298.0" y="620" type="line"/>
      <point x="298.0" y="100" type="line"/>
      <point x="143.0" y="100" type="line"/>
      <point x="143.0" y="90" type="line"/>
    </contour>
  </outline>
</glyph>
<glyph name="J" format="1">
  <advance width="688"/>
  <unicode hex="004A"/>
  <outline>
    <contour>
      <point x="504.0" y="630" type="line"/>
      <point x="504.0" y="213" type="line" smooth="yes"/>
      <point x="504.0" y="138"/>
      <point x="465.0" y="88"/>
      <point x="333.0" y="88" type="curve" smooth="yes"/>
      <point x="195.0" y="88"/>
      <point x="155.0" y="137"/>
      <point x="155.0" y="213" type="curve" smooth="yes"/>
      <point x="155.0" y="292" type="line"/>
      <point x="145.0" y="292" type="line"/>
      <point x="145.0" y="213" type="line" smooth="yes"/>
      <point x="145.0" y="133"/>
      <point x="183.0" y="78"/>
      <point x="333.0" y="78" type="curve" smooth="yes"/>
      <point x="475.0" y="78"/>
      <point x="514.0" y="134"/>
      <point x="514.0" y="213" type="curve" smooth="yes"/>
      <point x="514.0" y="630" type="line"/>
    </contour>
  </outline>
</glyph>
<glyph name="L" format="1">
  <advance width="695"/>
  <unicode hex="004C"/>
  <outline>
    <contour>
      <point x="178.0" y="90" type="line"/>
      <point x="546.0" y="90" type="line"/>
      <point x="546.0" y="297" type="line"/>
      <point x="536.0" y="297" type="line"/>
      <point x="536.0" y="100" type="line"/>
      <point x="188.0" y="100" type="line"/>
      <point x="188.0" y="630" type="line"/>
      <point x="178.0" y="630" type="line"/>
    </contour>
  </outline>
</glyph>
<glyph name="O" format="1">
  <advance width="737"/>
  <unicode hex="004F"/>
  <outline>
    <contour>
      <point x="570.0" y="212" type="curve" smooth="yes"/>
      <point x="570.0" y="507" type="line" smooth="yes"/>
      <point x="570.0" y="588"/>
      <point x="524.0" y="642"/>
      <point x="367.0" y="642" type="curve" smooth="yes"/>
      <point x="210.0" y="642"/>
      <point x="166.0" y="588"/>
      <point x="166.0" y="507" type="curve" smooth="yes"/>
      <point x="166.0" y="212" type="line" smooth="yes"/>
      <point x="166.0" y="131"/>
      <point x="210.0" y="77"/>
      <point x="367.0" y="77" type="curve" smooth="yes"/>
      <point x="524.0" y="77"/>
      <point x="570.0" y="131"/>
    </contour>
    <contour>
      <point x="176.0" y="212" type="curve" smooth="yes"/>
      <point x="176.0" y="507" type="line" smooth="yes"/>
      <point x="176.0" y="582"/>
      <point x="218.0" y="632"/>
      <point x="367.0" y="632" type="curve" smooth="yes"/>
      <point x="516.0" y="632"/>
      <point x="560.0" y="582"/>
      <point x="560.0" y="507" type="curve" smooth="yes"/>
      <point x="560.0" y="212" type="line" smooth="yes"/>
      <point x="560.0" y="137"/>
      <point x="516.0" y="87"/>
      <point x="367.0" y="87" type="curve" smooth="yes"/>
      <point x="218.0" y="87"/>
      <point x="176.0" y="137"/>
    </contour>
  </outline>
</glyph>
<glyph name="Q" format="1">
  <advance width="737"/>
  <unicode hex="0051"/>
  <outline>
    <contour>
      <point x="362.0" y="0" type="line"/>
      <point x="372.0" y="0" type="line"/>
      <point x="372.0" y="77" type="line"/>
      <point x="525.0" y="78"/>
      <point x="570.0" y="132"/>
      <point x="570.0" y="212" type="curve" smooth="yes"/>
      <point x="570.0" y="507" type="line" smooth="yes"/>
      <point x="570.0" y="588"/>
      <point x="524.0" y="642"/>
      <point x="367.0" y="642" type="curve" smooth="yes"/>
      <point x="210.0" y="642"/>
      <point x="166.0" y="588"/>
      <point x="166.0" y="507" type="curve" smooth="yes"/>
      <point x="166.0" y="212" type="line" smooth="yes"/>
      <point x="166.0" y="132"/>
      <point x="209.0" y="78"/>
      <point x="362.0" y="77" type="curve"/>
    </contour>
    <contour>
      <point x="176.0" y="212" type="curve" smooth="yes"/>
      <point x="176.0" y="507" type="line" smooth="yes"/>
      <point x="176.0" y="582"/>
      <point x="218.0" y="632"/>
      <point x="367.0" y="632" type="curve" smooth="yes"/>
      <point x="516.0" y="632"/>
      <point x="560.0" y="582"/>
      <point x="560.0" y="507" type="curve" smooth="yes"/>
      <point x="560.0" y="212" type="line" smooth="yes"/>
      <point x="560.0" y="137"/>
      <point x="516.0" y="87"/>
      <point x="367.0" y="87" type="curve" smooth="yes"/>
      <point x="218.0" y="87"/>
      <point x="176.0" y="137"/>
    </contour>
  </outline>
</glyph>
<glyph name="Y" format="1">
  <advance width="705"/>
  <unicode hex="0059"/>
  <outline>
    <contour>
      <point x="365.0" y="261" type="line" smooth="yes"/>
      <point x="396.0" y="261"/>
      <point x="417.0" y="274"/>
      <point x="439.0" y="303" type="curve" smooth="yes"/>
      <point x="539.0" y="438" type="line" smooth="yes"/>
      <point x="555.0" y="459"/>
      <point x="554.0" y="486"/>
      <point x="554.0" y="515" type="curve" smooth="yes"/>
      <point x="554.0" y="630" type="line"/>
      <point x="544.0" y="630" type="line"/>
      <point x="544.0" y="515" type="line" smooth="yes"/>
      <point x="544.0" y="487"/>
      <point x="544.0" y="460"/>
      <point x="530.0" y="442" type="curve" smooth="yes"/>
      <point x="430.0" y="307" type="line" smooth="yes"/>
      <point x="410.0" y="281"/>
      <point x="390.0" y="271"/>
      <point x="365.0" y="271" type="curve" smooth="yes"/>
      <point x="338.0" y="271" type="line" smooth="yes"/>
      <point x="315.0" y="271"/>
      <point x="292.0" y="280"/>
      <point x="274.0" y="307" type="curve"/>
      <point x="177.0" y="442" type="line"/>
      <point x="164.0" y="462"/>
      <point x="163.0" y="487"/>
      <point x="163.0" y="515" type="curve" smooth="yes"/>
      <point x="163.0" y="630" type="line"/>
      <point x="153.0" y="630" type="line"/>
      <point x="153.0" y="515" type="line" smooth="yes"/>
      <point x="153.0" y="486"/>
      <point x="153.0" y="458"/>
      <point x="168.0" y="438" type="curve" smooth="yes"/>
      <point x="265.0" y="303" type="line" smooth="yes"/>
      <point x="287.0" y="273"/>
      <point x="309.0" y="261"/>
      <point x="338.0" y="261" type="curve" smooth="yes"/>
      <point x="348.0" y="261" type="line"/>
      <point x="348.0" y="90" type="line"/>
      <point x="358.0" y="90" type="line"/>
      <point x="358.0" y="261" type="line"/>
    </contour>
    <contour>
      <point x="352.0" y="747.0" type="move" name="top"/>
    </contour>
    <contour>
      <point x="352.0" y="0.0" type="move" name="bottom"/>
    </contour>
  </outline>
</glyph>
<glyph name="bar" format="1">
  <advance width="347"/>
  <unicode hex="007C"/>
  <outline>
    <contour>
      <point x="169.0" y="720" type="line"/>
      <point x="169.0" y="0" type="line"/>
      <point x="179.0" y="0" type="line"/>
      <point x="179.0" y="720" type="line"/>
    </contour>
  </outline>
</glyph>
<glyph name="asciitilde" format="1">
  <advance width="734"/>
  <unicode hex="007E"/>
  <outline>
    <contour>
      <point x="160.0" y="368" type="line"/>
      <point x="209.0" y="381"/>
      <point x="240.0" y="383"/>
      <point x="326.0" y="370" type="curve" smooth="yes"/>
      <point x="366.0" y="365" type="line"/>
      <point x="389.0" y="362" type="line" smooth="yes"/>
      <point x="479.0" y="349"/>
      <point x="513.0" y="341"/>
      <point x="574.0" y="357" type="curve"/>
      <point x="574.0" y="368" type="line"/>
      <point x="513.0" y="351"/>
      <point x="481.0" y="358"/>
      <point x="391.0" y="372" type="curve" smooth="yes"/>
      <point x="368.0" y="375" type="line"/>
      <point x="328.0" y="380" type="line" smooth="yes"/>
      <point x="241.0" y="393"/>
      <point x="208.0" y="392"/>
      <point x="160.0" y="379" type="curve"/>
    </contour>
  </outline>
</glyph>
<glyph name="yen" format="1">
  <advance width="703"/>
  <unicode hex="00A5"/>
  <outline>
    <contour>
      <point x="519.0" y="209" type="line"/>
      <point x="519.0" y="219" type="line"/>
      <point x="358.0" y="219" type="line"/>
      <point x="358.0" y="309" type="line"/>
      <point x="377.0" y="309" type="line" smooth="yes"/>
      <point x="406.0" y="309"/>
      <point x="424.0" y="318"/>
      <point x="446.0" y="348" type="curve" smooth="yes"/>
      <point x="532.0" y="463" type="line"/>
      <point x="550.0" y="493"/>
      <point x="554.0" y="515"/>
      <point x="554.0" y="560" type="curve" smooth="yes"/>
      <point x="554.0" y="630" type="line"/>
      <point x="544.0" y="630" type="line"/>
      <point x="544.0" y="560" type="line" smooth="yes"/>
      <point x="544.0" y="517"/>
      <point x="540.0" y="497"/>
      <point x="524.0" y="469" type="curve"/>
      <point x="438.0" y="354" type="line" smooth="yes"/>
      <point x="418.0" y="328"/>
      <point x="402.0" y="319"/>
      <point x="377.0" y="319" type="curve" smooth="yes"/>
      <point x="330.0" y="319" type="line" smooth="yes"/>
      <point x="305.0" y="319"/>
      <point x="289.0" y="328"/>
      <point x="269.0" y="354" type="curve" smooth="yes"/>
      <point x="183.0" y="469" type="line"/>
      <point x="167.0" y="497"/>
      <point x="163.0" y="517"/>
      <point x="163.0" y="560" type="curve" smooth="yes"/>
      <point x="163.0" y="630" type="line"/>
      <point x="153.0" y="630" type="line"/>
      <point x="153.0" y="560" type="line" smooth="yes"/>
      <point x="153.0" y="515"/>
      <point x="157.0" y="493"/>
      <point x="175.0" y="463" type="curve" smooth="yes"/>
      <point x="261.0" y="348" type="line" smooth="yes"/>
      <point x="283.0" y="318"/>
      <point x="301.0" y="309"/>
      <point x="330.0" y="309" type="curve" smooth="yes"/>
      <point x="348.0" y="309" type="line"/>
      <point x="348.0" y="219" type="line"/>
      <point x="185.0" y="219" type="line"/>
      <point x="185.0" y="209" type="line"/>
      <point x="348.0" y="209" type="line"/>
      <point x="348.0" y="90" type="line"/>
      <point x="358.0" y="90" type="line"/>
      <point x="358.0" y="209" type="line"/>
    </contour>
  </outline>
</glyph>
<glyph name="ordfeminine" format="1">
  <advance width="520"/>
  <unicode hex="00AA"/>
  <outline>
    <contour>
      <point x="122.0" y="420" type="line"/>
      <point x="122.0" y="445"/>
      <point x="126.0" y="466"/>
      <point x="133.0" y="485" type="curve"/>
      <point x="178.0" y="601" type="line"/>
      <point x="188.0" y="625"/>
      <point x="195.0" y="642"/>
      <point x="223.0" y="642" type="curve" smooth="yes"/>
      <point x="290.0" y="642" type="line" smooth="yes"/>
      <point x="317.0" y="642"/>
      <point x="324.0" y="625"/>
      <point x="335.0" y="600" type="curve"/>
      <point x="383.0" y="485" type="line"/>
      <point x="390.0" y="466"/>
      <point x="395.0" y="445"/>
      <point x="395.0" y="420" type="curve"/>
      <point x="395.0" y="399" type="line"/>
      <point x="122.0" y="399" type="line"/>
    </contour>
    <contour>
      <point x="395.0" y="270" type="line"/>
      <point x="404.0" y="270" type="line"/>
      <point x="404.0" y="420" type="line" smooth="yes"/>
      <point x="404.0" y="446"/>
      <point x="400.0" y="468"/>
      <point x="392.0" y="488" type="curve" smooth="yes"/>
      <point x="343.0" y="603" type="line" smooth="yes"/>
      <point x="332.0" y="630"/>
      <point x="322.0" y="651"/>
      <point x="291.0" y="651" type="curve" smooth="yes"/>
      <point x="221.0" y="651" type="line" smooth="yes"/>
      <point x="189.0" y="651"/>
      <point x="180.0" y="630"/>
      <point x="170.0" y="604" type="curve" smooth="yes"/>
      <point x="125.0" y="488" type="line"/>
      <point x="117.0" y="468"/>
      <point x="113.0" y="446"/>
      <point x="113.0" y="420" type="curve" smooth="yes"/>
      <point x="113.0" y="270" type="line"/>
      <point x="122.0" y="270" type="line"/>
      <point x="122.0" y="390" type="line"/>
      <point x="395.0" y="390" type="line"/>
    </contour>
    <contour>
      <point x="414.0" y="73" type="line"/>
      <point x="106.0" y="73" type="line"/>
      <point x="106.0" y="65" type="line"/>
      <point x="414.0" y="65" type="line"/>
    </contour>
    <contour>
      <point x="263.0" y="745.0" type="move" name="top"/>
    </contour>
    <contour>
      <point x="263.0" y="207.0" type="move" name="bottom"/>
    </contour>
  </outline>
</glyph>
<glyph name="guillemotleft" format="1">
  <advance width="812"/>
  <unicode hex="00AB"/>
  <outline>
    <contour>
      <point x="204.0" y="251" type="line" smooth="yes"/>
      <point x="174.0" y="260"/>
      <point x="151.0" y="271"/>
      <point x="151.0" y="312" type="curve" smooth="yes"/>
      <point x="151.0" y="386" type="line" smooth="yes"/>
      <point x="151.0" y="427"/>
      <point x="174.0" y="437"/>
      <point x="205.0" y="447" type="curve" smooth="yes"/>
      <point x="302.0" y="477" type="line"/>
      <point x="302.0" y="487" type="line"/>
      <point x="203.0" y="457" type="line" smooth="yes"/>
      <point x="166.0" y="446"/>
      <point x="141.0" y="433"/>
      <point x="141.0" y="386" type="curve" smooth="yes"/>
      <point x="141.0" y="312" type="line" smooth="yes"/>
      <point x="141.0" y="265"/>
      <point x="166.0" y="251"/>
      <point x="202.0" y="241" type="curve" smooth="yes"/>
      <point x="302.0" y="212" type="line"/>
      <point x="302.0" y="222" type="line"/>
    </contour>
    <contour>
      <point x="573.0" y="457" type="line" smooth="yes"/>
      <point x="536.0" y="446"/>
      <point x="511.0" y="433"/>
      <point x="511.0" y="386" type="curve" smooth="yes"/>
      <point x="511.0" y="312" type="line" smooth="yes"/>
      <point x="511.0" y="265"/>
      <point x="536.0" y="251"/>
      <point x="572.0" y="241" type="curve" smooth="yes"/>
      <point x="672.0" y="212" type="line"/>
      <point x="672.0" y="222" type="line"/>
      <point x="574.0" y="251" type="line" smooth="yes"/>
      <point x="544.0" y="259"/>
      <point x="521.0" y="271"/>
      <point x="521.0" y="312" type="curve" smooth="yes"/>
      <point x="521.0" y="386" type="line" smooth="yes"/>
      <point x="521.0" y="427"/>
      <point x="544.0" y="438"/>
      <point x="575.0" y="447" type="curve" smooth="yes"/>
      <point x="672.0" y="477" type="line"/>
      <point x="672.0" y="487" type="line"/>
    </contour>
  </outline>
</glyph>
<glyph name="twosuperior" format="1">
  <advance width="485"/>
  <unicode hex="00B2"/>
  <outline>
    <contour>
      <point x="158.0" y="439" type="line" smooth="yes"/>
      <point x="127.0" y="429"/>
      <point x="117.0" y="415"/>
      <point x="117.0" y="379" type="curve" smooth="yes"/>
      <point x="117.0" y="266" type="line"/>
      <point x="369.0" y="266" type="line"/>
      <point x="369.0" y="275" type="line"/>
      <point x="126.0" y="275" type="line"/>
      <point x="126.0" y="379" type="line" smooth="yes"/>
      <point x="126.0" y="410"/>
      <point x="134.0" y="421"/>
      <point x="161.0" y="430" type="curve" smooth="yes"/>
      <point x="328.0" y="486" type="line"/>
      <point x="345.0" y="492"/>
      <point x="355.0" y="504"/>
      <point x="355.0" y="527" type="curve" smooth="yes"/>
      <point x="355.0" y="593" type="line" smooth="yes"/>
      <point x="355.0" y="642"/>
      <point x="327.0" y="656"/>
      <point x="277.0" y="656" type="curve" smooth="yes"/>
      <point x="132.0" y="656" type="line"/>
      <point x="132.0" y="647" type="line"/>
      <point x="277.0" y="647" type="line" smooth="yes"/>
      <point x="319.0" y="647"/>
      <point x="345.0" y="636"/>
      <point x="345.0" y="593" type="curve" smooth="yes"/>
      <point x="345.0" y="527" type="line" smooth="yes"/>
      <point x="345.0" y="510"/>
      <point x="337.0" y="499"/>
      <point x="326.0" y="494" type="curve"/>
    </contour>
  </outline>
</glyph>
<glyph name="Ccedilla" format="1">
  <advance width="628"/>
  <unicode hex="00C7"/>
  <outline>
    <contour>
      <point x="493" y="90" type="line"/>
      <point x="493" y="100" type="line"/>
      <point x="326" y="100" type="line" smooth="yes"/>
      <point x="206" y="100"/>
      <point x="176" y="132"/>
      <point x="176" y="219" type="curve" smooth="yes"/>
      <point x="176" y="499" type="line" smooth="yes"/>
      <point x="176" y="588"/>
      <point x="208" y="620"/>
      <point x="326" y="620" type="curve" smooth="yes"/>
      <point x="493" y="620" type="line"/>
      <point x="493" y="630" type="line"/>
      <point x="326" y="630" type="line" smooth="yes"/>
      <point x="198" y="630"/>
      <point x="166" y="594"/>
      <point x="166" y="499" type="curve" smooth="yes"/>
      <point x="166" y="219" type="line" smooth="yes"/>
      <point x="166" y="126"/>
      <point x="196" y="90"/>
      <point x="326" y="90" type="curve" smooth="yes"/>
      <point x="394" y="90" type="line"/>
      <point x="349" y="-36" type="line"/>
      <point x="359" y="-36" type="line"/>
      <point x="405" y="90" type="line"/>
    </contour>
  </outline>
</glyph>
<glyph name="Eogonek" format="1">
  <advance width="654"/>
  <unicode hex="0118"/>
  <outline>
    <contour>
      <point x="515" y="-106" type="line"/>
      <point x="491" y="-106" type="line" smooth="yes"/>
      <point x="450" y="-106"/>
      <point x="445" y="-83"/>
      <point x="450" y="-43" type="curve" smooth="yes"/>
      <point x="462" y="42" type="line" smooth="yes"/>
      <point x="466" y="71"/>
      <point x="470" y="76"/>
      <point x="495" y="90" type="curve"/>
      <point x="515" y="90" type="line"/>
      <point x="515" y="100" type="line"/>
      <point x="188" y="100" type="line"/>
      <point x="188" y="359" type="line"/>
      <point x="434" y="359" type="line"/>
      <point x="434" y="369" type="line"/>
      <point x="188" y="369" type="line"/>
      <point x="188" y="620" type="line"/>
      <point x="515" y="620" type="line"/>
      <point x="515" y="630" type="line"/>
      <point x="178" y="630" type="line"/>
      <point x="178" y="90" type="line"/>
      <point x="476" y="90" type="line"/>
      <point x="460" y="78"/>
      <point x="456" y="68"/>
      <point x="452" y="42" type="curve" smooth="yes"/>
      <point x="440" y="-41" type="line" smooth="yes"/>
      <point x="432" y="-91"/>
      <point x="442" y="-116"/>
      <point x="491" y="-116" type="curve" smooth="yes"/>
      <point x="515" y="-116" type="line"/>
    </contour>
  </outline>
</glyph>
<glyph name="Iogonek" format="1">
  <advance width="605"/>
  <unicode hex="012E"/>
  <outline>
    <contour>
      <point x="461" y="-106" type="line"/>
      <point x="437" y="-106" type="line" smooth="yes"/>
      <point x="396" y="-106"/>
      <point x="391" y="-83"/>
      <point x="396" y="-43" type="curve" smooth="yes"/>
      <point x="408" y="42" type="line" smooth="yes"/>
      <point x="412" y="71"/>
      <point x="416" y="76"/>
      <point x="441" y="90" type="curve"/>
      <point x="461" y="90" type="line"/>
      <point x="461" y="100" type="line"/>
      <point x="308" y="100" type="line"/>
      <point x="308" y="620" type="line"/>
      <point x="461" y="620" type="line"/>
      <point x="461" y="630" type="line"/>
      <point x="143" y="630" type="line"/>
      <point x="143" y="620" type="line"/>
      <point x="298" y="620" type="line"/>
      <point x="298" y="100" type="line"/>
      <point x="143" y="100" type="line"/>
      <point x="143" y="90" type="line"/>
      <point x="422" y="90" type="line"/>
      <point x="406" y="78"/>
      <point x="402" y="68"/>
      <point x="398" y="42" type="curve" smooth="yes"/>
      <point x="386" y="-41" type="line" smooth="yes"/>
      <point x="378" y="-91"/>
      <point x="388" y="-116"/>
      <point x="437" y="-116" type="curve" smooth="yes"/>
      <point x="461" y="-116" type="line"/>
    </contour>
  </outline>
</glyph>
<glyph name="Scedilla" format="1">
  <advance width="650"/>
  <unicode hex="015E"/>
  <outline>
    <contour>
      <point x="390" y="90" type="line" smooth="yes"/>
      <point x="458" y="90"/>
      <point x="501" y="132"/>
      <point x="501" y="191" type="curve" smooth="yes"/>
      <point x="501" y="249" type="line" smooth="yes"/>
      <point x="501" y="319"/>
      <point x="472" y="339"/>
      <point x="432" y="347" type="curve" smooth="yes"/>
      <point x="221" y="390" type="line" smooth="yes"/>
      <point x="190" y="396"/>
      <point x="170" y="410"/>
      <point x="170" y="457" type="curve" smooth="yes"/>
      <point x="170" y="539" type="line" smooth="yes"/>
      <point x="170" y="586"/>
      <point x="206" y="620"/>
      <point x="262" y="620" type="curve" smooth="yes"/>
      <point x="484" y="620" type="line"/>
      <point x="484" y="630" type="line"/>
      <point x="262" y="630" type="line" smooth="yes"/>
      <point x="200" y="630"/>
      <point x="160" y="592"/>
      <point x="160" y="539" type="curve" smooth="yes"/>
      <point x="160" y="457" type="line" smooth="yes"/>
      <point x="160" y="402"/>
      <point x="184" y="387"/>
      <point x="219" y="380" type="curve" smooth="yes"/>
      <point x="430" y="337" type="line" smooth="yes"/>
      <point x="467" y="329"/>
      <point x="491" y="312"/>
      <point x="491" y="249" type="curve" smooth="yes"/>
      <point x="491" y="191" type="line" smooth="yes"/>
      <point x="491" y="138"/>
      <point x="452" y="100"/>
      <point x="390" y="100" type="curve" smooth="yes"/>
      <point x="141" y="100" type="line"/>
      <point x="141" y="90" type="line"/>
      <point x="344" y="90" type="line"/>
      <point x="299" y="-36" type="line"/>
      <point x="309" y="-36" type="line"/>
      <point x="355" y="90" type="line"/>
    </contour>
  </outline>
</glyph>
<glyph name="Tbar" format="1">
  <advance width="656"/>
  <unicode hex="0166"/>
  <outline>
    <contour>
      <point x="467" y="306" type="line"/>
      <point x="467" y="316" type="line"/>
      <point x="333" y="316" type="line"/>
      <point x="333" y="620" type="line"/>
      <point x="538" y="620" type="line"/>
      <point x="538" y="630" type="line"/>
      <point x="118" y="630" type="line"/>
      <point x="118" y="620" type="line"/>
      <point x="323" y="620" type="line"/>
      <point x="323" y="316" type="line"/>
      <point x="188" y="316" type="line"/>
      <point x="188" y="306" type="line"/>
      <point x="323" y="306" type="line"/>
      <point x="323" y="90" type="line"/>
      <point x="333" y="90" type="line"/>
      <point x="333" y="306" type="line"/>
    </contour>
  </outline>
</glyph>
<glyph name="Uogonek" format="1">
  <advance width="746"/>
  <unicode hex="0172"/>
  <outline>
    <contour>
      <point x="431" y="-126" type="line"/>
      <point x="431" y="-116" type="line"/>
      <point x="407" y="-116" type="line" smooth="yes"/>
      <point x="366" y="-116"/>
      <point x="361" y="-93"/>
      <point x="366" y="-53" type="curve" smooth="yes"/>
      <point x="378" y="32" type="line" smooth="yes"/>
      <point x="382" y="60"/>
      <point x="386" y="66"/>
      <point x="409" y="79" type="curve"/>
      <point x="538" y="87"/>
      <point x="575" y="138"/>
      <point x="575" y="213" type="curve" smooth="yes"/>
      <point x="575" y="630" type="line"/>
      <point x="565" y="630" type="line"/>
      <point x="565" y="213" type="line" smooth="yes"/>
      <point x="565" y="138"/>
      <point x="523" y="88"/>
      <point x="374" y="88" type="curve" smooth="yes"/>
      <point x="225" y="88"/>
      <point x="184" y="138"/>
      <point x="184" y="213" type="curve" smooth="yes"/>
      <point x="184" y="630" type="line"/>
      <point x="174" y="630" type="line"/>
      <point x="174" y="213" type="line" smooth="yes"/>
      <point x="174" y="132"/>
      <point x="217" y="78"/>
      <point x="374" y="78" type="curve" smooth="yes"/>
      <point x="379" y="78"/>
      <point x="385" y="78"/>
      <point x="390" y="78" type="curve"/>
      <point x="375" y="67"/>
      <point x="372" y="57"/>
      <point x="368" y="32" type="curve" smooth="yes"/>
      <point x="356" y="-51" type="line" smooth="yes"/>
      <point x="348" y="-101"/>
      <point x="358" y="-126"/>
      <point x="407" y="-126" type="curve" smooth="yes"/>
    </contour>
  </outline>
</glyph>
<glyph name="Ohorn" format="1">
  <advance width="747"/>
  <unicode hex="01A0"/>
  <outline>
    <contour>
      <point x="367" y="77" type="curve" smooth="yes"/>
      <point x="210" y="77"/>
      <point x="166" y="131"/>
      <point x="166" y="212" type="curve" smooth="yes"/>
      <point x="166" y="507" type="line" smooth="yes"/>
      <point x="166" y="588"/>
      <point x="210" y="642"/>
      <point x="367" y="642" type="curve" smooth="yes"/>
      <point x="430" y="642"/>
      <point x="474" y="633"/>
      <point x="506" y="618" type="curve"/>
      <point x="599" y="618"/>
      <point x="640" y="670"/>
      <point x="640" y="724" type="curve" smooth="yes"/>
      <point x="640" y="733" type="line"/>
      <point x="650" y="733" type="line"/>
      <point x="650" y="724" type="line" smooth="yes"/>
      <point x="650" y="672"/>
      <point x="619" y="615"/>
      <point x="522" y="609" type="curve"/>
      <point x="557" y="585"/>
      <point x="570" y="550"/>
      <point x="570" y="507" type="curve" smooth="yes"/>
      <point x="570" y="212" type="line" smooth="yes"/>
      <point x="570" y="131"/>
      <point x="524" y="77"/>
    </contour>
    <contour>
      <point x="176" y="507" type="curve" smooth="yes"/>
      <point x="176" y="212" type="line" smooth="yes"/>
      <point x="176" y="137"/>
      <point x="218" y="87"/>
      <point x="367" y="87" type="curve" smooth="yes"/>
      <point x="516" y="87"/>
      <point x="560" y="137"/>
      <point x="560" y="212" type="curve" smooth="yes"/>
      <point x="560" y="507" type="line" smooth="yes"/>
      <point x="560" y="582"/>
      <point x="516" y="632"/>
      <point x="367" y="632" type="curve" smooth="yes"/>
      <point x="218" y="632"/>
      <point x="176" y="582"/>
    </contour>
  </outline>
</glyph>
<glyph name="Uhorn" format="1">
  <advance width="756"/>
  <unicode hex="01AF"/>
  <outline>
    <contour>
      <point x="575" y="213" type="curve" smooth="yes"/>
      <point x="575" y="620" type="line"/>
      <point x="639" y="628"/>
      <point x="659" y="676"/>
      <point x="659" y="724" type="curve" smooth="yes"/>
      <point x="659" y="733" type="line"/>
      <point x="649" y="733" type="line"/>
      <point x="649" y="724" type="line" smooth="yes"/>
      <point x="649" y="676"/>
      <point x="623" y="630"/>
      <point x="565" y="630" type="curve"/>
      <point x="565" y="213" type="line" smooth="yes"/>
      <point x="565" y="138"/>
      <point x="523" y="88"/>
      <point x="374" y="88" type="curve" smooth="yes"/>
      <point x="225" y="88"/>
      <point x="184" y="138"/>
      <point x="184" y="213" type="curve" smooth="yes"/>
      <point x="184" y="630" type="line"/>
      <point x="174" y="630" type="line"/>
      <point x="174" y="213" type="line" smooth="yes"/>
      <point x="174" y="132"/>
      <point x="217" y="78"/>
      <point x="374" y="78" type="curve" smooth="yes"/>
      <point x="531" y="78"/>
      <point x="575" y="132"/>
    </contour>
  </outline>
</glyph>
<glyph name="ring" format="1">
  <advance width="500"/>
  <unicode hex="02DA"/>
  <outline>
    <contour>
      <point x="109.0" y="920" type="line" smooth="yes"/>
      <point x="109.0" y="860"/>
      <point x="131.0" y="820"/>
      <point x="250.0" y="820" type="curve" smooth="yes"/>
      <point x="369.0" y="820"/>
      <point x="393.0" y="860"/>
      <point x="393.0" y="920" type="curve" smooth="yes"/>
      <point x="393.0" y="975" type="line" smooth="yes"/>
      <point x="393.0" y="1034"/>
      <point x="369.0" y="1076"/>
      <point x="250.0" y="1076" type="curve" smooth="yes"/>
      <point x="131.0" y="1076"/>
      <point x="109.0" y="1035"/>
      <point x="109.0" y="975" type="curve" smooth="yes"/>
    </contour>
    <contour>
      <point x="250.0" y="1066" type="curve" smooth="yes"/>
      <point x="357.0" y="1066"/>
      <point x="383.0" y="1030"/>
      <point x="383.0" y="975" type="curve" smooth="yes"/>
      <point x="383.0" y="920" type="line" smooth="yes"/>
      <point x="383.0" y="864"/>
      <point x="357.0" y="830"/>
      <point x="250.0" y="830" type="curve" smooth="yes"/>
      <point x="143.0" y="830"/>
      <point x="119.0" y="864"/>
      <point x="119.0" y="920" type="curve" smooth="yes"/>
      <point x="119.0" y="975" type="line" smooth="yes"/>
      <point x="119.0" y="1031"/>
      <point x="143.0" y="1066"/>
    </contour>
    <contour>
      <point x="250.0" y="747.0" type="move" name="_top"/>
    </contour>
    <contour>
      <point x="250.0" y="0.0" type="move" name="_bottom"/>
    </contour>
  </outline>
</glyph>
<glyph name="hungarumlaut" format="1">
  <advance width="500"/>
  <unicode hex="02DD"/>
  <outline>
    <contour>
      <point x="102.0" y="850" type="line"/>
      <point x="127.0" y="947" type="line"/>
      <point x="116.0" y="947" type="line"/>
      <point x="91.0" y="850" type="line"/>
    </contour>
    <contour>
      <point x="362.0" y="850" type="line"/>
      <point x="387.0" y="947" type="line"/>
      <point x="376.0" y="947" type="line"/>
      <point x="351.0" y="850" type="line"/>
    </contour>
  </outline>
</glyph>
<glyph name="commaaccent" format="1">
  <advance width="500"/>
  <unicode hex="0326"/>
  <outline>
    <contour>
      <point x="309.0" y="-132" type="line"/>
      <point x="191.0" y="-132" type="line"/>
      <point x="191.0" y="-142" type="line"/>
      <point x="299.0" y="-142" type="line"/>
      <point x="299.0" y="-229" type="line" smooth="yes"/>
      <point x="299.0" y="-283"/>
      <point x="274.0" y="-305"/>
      <point x="226.0" y="-305" type="curve" smooth="yes"/>
      <point x="191.0" y="-305" type="line"/>
      <point x="191.0" y="-315" type="line"/>
      <point x="226.0" y="-315" type="line" smooth="yes"/>
      <point x="280.0" y="-315"/>
      <point x="309.0" y="-290"/>
      <point x="309.0" y="-229" type="curve" smooth="yes"/>
    </contour>
    <contour>
      <point x="250.0" y="747.0" type="move" name="_top"/>
    </contour>
    <contour>
      <point x="250.0" y="0.0" type="move" name="_bottom"/>
    </contour>
  </outline>
</glyph>
<glyph name="pi" format="1">
  <advance width="721"/>
  <unicode hex="03C0"/>
  <outline>
    <contour>
      <point x="170.0" y="90" type="line"/>
      <point x="180.0" y="90" type="line"/>
      <point x="180.0" y="470" type="line"/>
      <point x="542.0" y="470" type="line"/>
      <point x="542.0" y="90" type="line"/>
      <point x="552.0" y="90" type="line"/>
      <point x="552.0" y="480" type="line"/>
      <point x="170.0" y="480" type="line"/>
    </contour>
  </outline>
</glyph>
<glyph name="ellipsis" format="1">
  <advance width="1110"/>
  <unicode hex="2026"/>
  <outline>
    <contour>
      <point x="187.0" y="90" type="line"/>
      <point x="197.0" y="90" type="line"/>
      <point x="197.0" y="185" type="line"/>
      <point x="187.0" y="185" type="line"/>
    </contour>
    <contour>
      <point x="550.0" y="90" type="line"/>
      <point x="560.0" y="90" type="line"/>
      <point x="560.0" y="185" type="line"/>
      <point x="550.0" y="185" type="line"/>
    </contour>
    <contour>
      <point x="913.0" y="90" type="line"/>
      <point x="923.0" y="90" type="line"/>
      <point x="923.0" y="185" type="line"/>
      <point x="913.0" y="185" type="line"/>
    </contour>
  </outline>
</glyph>
<glyph name="minute" format="1">
  <advance width="356"/>
  <unicode hex="2032"/>
  <outline>
    <contour>
      <point x="177.0" y="435" type="line"/>
      <point x="191.0" y="630" type="line"/>
      <point x="180.0" y="630" type="line"/>
      <point x="166.0" y="435" type="line"/>
    </contour>
  </outline>
</glyph>
<glyph name="guilsinglright" format="1">
  <advance width="563"/>
  <unicode hex="203A"/>
  <outline>
    <contour>
      <point x="170.0" y="208" type="line"/>
      <point x="357.0" y="246" type="line" smooth="yes"/>
      <point x="393.0" y="253"/>
      <point x="410.0" y="270"/>
      <point x="410.0" y="310" type="curve" smooth="yes"/>
      <point x="410.0" y="388" type="line" smooth="yes"/>
      <point x="410.0" y="428"/>
      <point x="393.0" y="445"/>
      <point x="358.0" y="452" type="curve" smooth="yes"/>
      <point x="170.0" y="490" type="line"/>
      <point x="170.0" y="480" type="line"/>
      <point x="356.0" y="442" type="line" smooth="yes"/>
      <point x="385.0" y="436"/>
      <point x="400.0" y="422"/>
      <point x="400.0" y="388" type="curve" smooth="yes"/>
      <point x="400.0" y="310" type="line" smooth="yes"/>
      <point x="400.0" y="276"/>
      <point x="385.0" y="262"/>
      <point x="355.0" y="256" type="curve" smooth="yes"/>
      <point x="170.0" y="218" type="line"/>
    </contour>
  </outline>
</glyph>
<glyph name="fraction" format="1">
  <advance width="317"/>
  <unicode hex="2044"/>
  <outline>
    <contour>
      <point x="114.0" y="90" type="line"/>
      <point x="214.0" y="630" type="line"/>
      <point x="204.0" y="630" type="line"/>
      <point x="104.0" y="90" type="line"/>
    </contour>
  </outline>
</glyph>
<glyph name="six.sups" format="1">
  <advance width="528"/>
  <unicode hex="2076"/>
  <outline>
    <contour>
      <point x="273.0" y="252" type="curve" smooth="yes"/>
      <point x="348.0" y="252"/>
      <point x="403.0" y="264"/>
      <point x="403.0" y="335" type="curve" smooth="yes"/>
      <point x="403.0" y="400" type="line" smooth="yes"/>
      <point x="403.0" y="474"/>
      <point x="348.0" y="478"/>
      <point x="275.0" y="478" type="curve" smooth="yes"/>
      <point x="215.0" y="478"/>
      <point x="162.0" y="470"/>
      <point x="143.0" y="436" type="curve"/>
      <point x="143.0" y="572" type="line" smooth="yes"/>
      <point x="143.0" y="632"/>
      <point x="177.0" y="648"/>
      <point x="234.0" y="648" type="curve" smooth="yes"/>
      <point x="364.0" y="648" type="line"/>
      <point x="364.0" y="656" type="line"/>
      <point x="234.0" y="656" type="line" smooth="yes"/>
      <point x="171.0" y="656"/>
      <point x="135.0" y="638"/>
      <point x="135.0" y="572" type="curve" smooth="yes"/>
      <point x="135.0" y="335" type="line" smooth="yes"/>
      <point x="135.0" y="262"/>
      <point x="195.0" y="252"/>
    </contour>
    <contour>
      <point x="273.0" y="260" type="curve" smooth="yes"/>
      <point x="203.0" y="260"/>
      <point x="143.0" y="266"/>
      <point x="143.0" y="335" type="curve" smooth="yes"/>
      <point x="143.0" y="406" type="line"/>
      <point x="143.0" y="462"/>
      <point x="211.0" y="470"/>
      <point x="275.0" y="470" type="curve" smooth="yes"/>
      <point x="340.0" y="470"/>
      <point x="395.0" y="470"/>
      <point x="395.0" y="400" type="curve" smooth="yes"/>
      <point x="395.0" y="335" type="line" smooth="yes"/>
      <point x="395.0" y="268"/>
      <point x="340.0" y="260"/>
    </contour>
  </outline>
</glyph>
<glyph name="eight.sups" format="1">
  <advance width="538"/>
  <unicode hex="2078"/>
  <outline>
    <contour>
      <point x="269.0" y="250" type="curve" smooth="yes"/>
      <point x="385.0" y="250"/>
      <point x="415.0" y="283"/>
      <point x="415.0" y="326" type="curve" smooth="yes"/>
      <point x="415.0" y="392" type="line" smooth="yes"/>
      <point x="415.0" y="429"/>
      <point x="394.0" y="458"/>
      <point x="320.0" y="466" type="curve"/>
      <point x="369.0" y="474"/>
      <point x="389.0" y="493"/>
      <point x="389.0" y="527" type="curve" smooth="yes"/>
      <point x="389.0" y="595" type="line" smooth="yes"/>
      <point x="389.0" y="644"/>
      <point x="354.0" y="667"/>
      <point x="269.0" y="667" type="curve" smooth="yes"/>
      <point x="184.0" y="667"/>
      <point x="148.0" y="643"/>
      <point x="148.0" y="600" type="curve" smooth="yes"/>
      <point x="148.0" y="527" type="line" smooth="yes"/>
      <point x="148.0" y="493"/>
      <point x="168.0" y="473"/>
      <point x="217.0" y="466" type="curve"/>
      <point x="144.0" y="457"/>
      <point x="122.0" y="428"/>
      <point x="122.0" y="391" type="curve" smooth="yes"/>
      <point x="122.0" y="326" type="line" smooth="yes"/>
      <point x="122.0" y="283"/>
      <point x="153.0" y="250"/>
    </contour>
    <contour>
      <point x="156.0" y="600" type="line" smooth="yes"/>
      <point x="156.0" y="641"/>
      <point x="194.0" y="659"/>
      <point x="269.0" y="659" type="curve" smooth="yes"/>
      <point x="344.0" y="659"/>
      <point x="381.0" y="640"/>
      <point x="381.0" y="595" type="curve" smooth="yes"/>
      <point x="381.0" y="527" type="line" smooth="yes"/>
      <point x="381.0" y="485"/>
      <point x="345.0" y="470"/>
      <point x="269.0" y="470" type="curve" smooth="yes"/>
      <point x="192.0" y="470"/>
      <point x="156.0" y="485"/>
      <point x="156.0" y="527" type="curve" smooth="yes"/>
    </contour>
    <contour>
      <point x="130.0" y="391" type="line" smooth="yes"/>
      <point x="130.0" y="434"/>
      <point x="166.0" y="462"/>
      <point x="269.0" y="462" type="curve" smooth="yes"/>
      <point x="372.0" y="462"/>
      <point x="407.0" y="434"/>
      <point x="407.0" y="392" type="curve" smooth="yes"/>
      <point x="407.0" y="326" type="line" smooth="yes"/>
      <point x="407.0" y="285"/>
      <point x="373.0" y="258"/>
      <point x="269.0" y="258" type="curve" smooth="yes"/>
      <point x="165.0" y="258"/>
      <point x="130.0" y="285"/>
      <point x="130.0" y="326" type="curve" smooth="yes"/>
    </contour>
  </outline>
</glyph>
<glyph name="guarani" format="1">
  <advance width="688.0"/>
  <unicode hex="20B2"/>
  <outline>
    <contour>
      <point x="358.0" y="40" type="line"/>
      <point x="368.0" y="40" type="line"/>
      <point x="368.0" y="125" type="line"/>
      <point x="531.0" y="125" type="line"/>
      <point x="531.0" y="281" type="line"/>
      <point x="521.0" y="284" type="line"/>
      <point x="521.0" y="138" type="line"/>
      <point x="342.0" y="135" type="line" smooth="yes"/>
      <point x="207.0" y="133"/>
      <point x="172.0" y="167"/>
      <point x="172.0" y="254" type="curve" smooth="yes"/>
      <point x="172.0" y="464" type="line" smooth="yes"/>
      <point x="172.0" y="553"/>
      <point x="204.0" y="585"/>
      <point x="322.0" y="585" type="curve" smooth="yes"/>
      <point x="495.0" y="585" type="line"/>
      <point x="495.0" y="595" type="line"/>
      <point x="368.0" y="595" type="line"/>
      <point x="368.0" y="680" type="line"/>
      <point x="358.0" y="680" type="line"/>
      <point x="358.0" y="595" type="line"/>
      <point x="322.0" y="595" type="line" smooth="yes"/>
      <point x="194.0" y="595"/>
      <point x="162.0" y="559"/>
      <point x="162.0" y="464" type="curve" smooth="yes"/>
      <point x="162.0" y="254" type="line" smooth="yes"/>
      <point x="162.0" y="161"/>
      <point x="195.0" y="125"/>
      <point x="342.0" y="125" type="curve" smooth="yes"/>
      <point x="358.0" y="125" type="line"/>
    </contour>
  </outline>
</glyph>
<glyph name="uni2117" format="1">
  <advance width="867"/>
  <unicode hex="2117"/>
  <outline>
    <contour>
      <point x="762.0" y="568" type="line" smooth="yes"/>
      <point x="762.0" y="672"/>
      <point x="733.0" y="768"/>
      <point x="434.0" y="768" type="curve" smooth="yes"/>
      <point x="135.0" y="768"/>
      <point x="105.0" y="672"/>
      <point x="105.0" y="568" type="curve" smooth="yes"/>
      <point x="105.0" y="150" type="line" smooth="yes"/>
      <point x="105.0" y="37"/>
      <point x="153.0" y="-48"/>
      <point x="434.0" y="-48" type="curve" smooth="yes"/>
      <point x="715.0" y="-48"/>
      <point x="762.0" y="47"/>
      <point x="762.0" y="150" type="curve" smooth="yes"/>
    </contour>
    <contour>
      <point x="434.0" y="-38" type="curve" smooth="yes"/>
      <point x="169.0" y="-38"/>
      <point x="115.0" y="41"/>
      <point x="115.0" y="150" type="curve" smooth="yes"/>
      <point x="115.0" y="568" type="line" smooth="yes"/>
      <point x="115.0" y="668"/>
      <point x="149.0" y="758"/>
      <point x="434.0" y="758" type="curve" smooth="yes"/>
      <point x="719.0" y="758"/>
      <point x="752.0" y="668"/>
      <point x="752.0" y="568" type="curve" smooth="yes"/>
      <point x="752.0" y="150" type="line" smooth="yes"/>
      <point x="752.0" y="51"/>
      <point x="699.0" y="-38"/>
    </contour>
    <contour>
      <point x="312.0" y="173" type="line"/>
      <point x="322.0" y="173" type="line"/>
      <point x="322.0" y="314" type="line"/>
      <point x="469.0" y="314" type="line" smooth="yes"/>
      <point x="561.0" y="314"/>
      <point x="578.0" y="354"/>
      <point x="578.0" y="411" type="curve" smooth="yes"/>
      <point x="578.0" y="464" type="line" smooth="yes"/>
      <point x="578.0" y="521"/>
      <point x="561.0" y="564"/>
      <point x="469.0" y="564" type="curve" smooth="yes"/>
      <point x="312.0" y="564" type="line"/>
    </contour>
    <contour>
      <point x="469.0" y="554" type="line" smooth="yes"/>
      <point x="557.0" y="554"/>
      <point x="568.0" y="515"/>
      <point x="568.0" y="464" type="curve" smooth="yes"/>
      <point x="568.0" y="411" type="line" smooth="yes"/>
      <point x="568.0" y="361"/>
      <point x="557.0" y="324"/>
      <point x="469.0" y="324" type="curve" smooth="yes"/>
      <point x="322.0" y="324" type="line"/>
      <point x="322.0" y="554" type="line"/>
    </contour>
  </outline>
</glyph>
<glyph name="trademark" format="1">
  <advance width="903"/>
  <unicode hex="2122"/>
  <outline>
    <contour>
      <point x="193.0" y="349" type="line"/>
      <point x="203.0" y="349" type="line"/>
      <point x="203.0" y="653" type="line"/>
      <point x="341.0" y="653" type="line"/>
      <point x="341.0" y="663" type="line"/>
      <point x="58.0" y="663" type="line"/>
      <point x="58.0" y="653" type="line"/>
      <point x="193.0" y="653" type="line"/>
    </contour>
    <contour>
      <point x="501.0" y="349" type="line"/>
      <point x="501.0" y="644" type="line" smooth="yes"/>
      <point x="501.0" y="650"/>
      <point x="505.0" y="653"/>
      <point x="509.0" y="653" type="curve" smooth="yes"/>
      <point x="516.0" y="653" type="line" smooth="yes"/>
      <point x="521.0" y="653"/>
      <point x="525.0" y="651"/>
      <point x="529.0" y="646" type="curve" smooth="yes"/>
      <point x="621.0" y="517" type="line" smooth="yes"/>
      <point x="626.0" y="509"/>
      <point x="630.0" y="507"/>
      <point x="637.0" y="507" type="curve" smooth="yes"/>
      <point x="639.0" y="507" type="line" smooth="yes"/>
      <point x="648.0" y="507"/>
      <point x="651.0" y="511"/>
      <point x="656.0" y="518" type="curve"/>
      <point x="747.0" y="646" type="line" smooth="yes"/>
      <point x="751.0" y="651"/>
      <point x="755.0" y="653"/>
      <point x="760.0" y="653" type="curve" smooth="yes"/>
      <point x="767.0" y="653" type="line" smooth="yes"/>
      <point x="772.0" y="653"/>
      <point x="775.0" y="650"/>
      <point x="775.0" y="644" type="curve" smooth="yes"/>
      <point x="775.0" y="349" type="line"/>
      <point x="785.0" y="349" type="line"/>
      <point x="785.0" y="644" type="line" smooth="yes"/>
      <point x="785.0" y="656"/>
      <point x="777.0" y="663"/>
      <point x="767.0" y="663" type="curve" smooth="yes"/>
      <point x="760.0" y="663" type="line" smooth="yes"/>
      <point x="753.0" y="663"/>
      <point x="745.0" y="661"/>
      <point x="739.0" y="652" type="curve" smooth="yes"/>
      <point x="648.0" y="524" type="line"/>
      <point x="645.0" y="521"/>
      <point x="644.0" y="517"/>
      <point x="639.0" y="517" type="curve" smooth="yes"/>
      <point x="637.0" y="517" type="line" smooth="yes"/>
      <point x="634.0" y="517"/>
      <point x="632.0" y="519"/>
      <point x="629.0" y="523" type="curve" smooth="yes"/>
      <point x="537.0" y="652" type="line" smooth="yes"/>
      <point x="531.0" y="661"/>
      <point x="523.0" y="663"/>
      <point x="516.0" y="663" type="curve" smooth="yes"/>
      <point x="509.0" y="663" type="line" smooth="yes"/>
      <point x="500.0" y="663"/>
      <point x="491.0" y="656"/>
      <point x="491.0" y="644" type="curve" smooth="yes"/>
      <point x="491.0" y="349" type="line"/>
    </contour>
  </outline>
</glyph>
<glyph name="arrowup" format="1">
  <advance width="1000"/>
  <unicode hex="2191"/>
  <outline>
    <contour>
      <point x="495.0" y="129" type="line"/>
      <point x="505.0" y="129" type="line"/>
      <point x="505.0" y="345" type="line"/>
      <point x="638.0" y="345" type="line"/>
      <point x="500.0" y="549" type="line"/>
      <point x="363.0" y="345" type="line"/>
      <point x="495.0" y="345" type="line"/>
    </contour>
    <contour>
      <point x="620.0" y="355" type="line"/>
      <point x="381.0" y="355" type="line"/>
      <point x="500.0" y="531" type="line"/>
    </contour>
  </outline>
</glyph>
<glyph name="arrowdownleft" format="1">
  <advance width="1000"/>
  <unicode hex="2199"/>
  <outline>
    <contour>
      <point x="352.0" y="205" type="line"/>
      <point x="593.0" y="253" type="line"/>
      <point x="500.0" y="346" type="line"/>
      <point x="653.0" y="499" type="line"/>
      <point x="646.0" y="506" type="line"/>
      <point x="493.0" y="353" type="line"/>
      <point x="399.0" y="447" type="line"/>
    </contour>
    <contour>
      <point x="365.0" y="218" type="line"/>
      <point x="405.0" y="427" type="line"/>
      <point x="573.0" y="259" type="line"/>
    </contour>
  </outline>
</glyph>
<glyph name="integral" format="1">
  <advance width="474"/>
  <unicode hex="222B"/>
  <outline>
    <contour>
      <point x="359.0" y="718" type="line"/>
      <point x="282.0" y="718"/>
      <point x="232.0" y="689"/>
      <point x="232.0" y="597" type="curve" smooth="yes"/>
      <point x="232.0" y="136" type="line" smooth="yes"/>
      <point x="232.0" y="32"/>
      <point x="206.0" y="12"/>
      <point x="105.0" y="12" type="curve"/>
      <point x="105.0" y="2" type="line"/>
      <point x="213.0" y="2"/>
      <point x="242.0" y="24"/>
      <point x="242.0" y="136" type="curve" smooth="yes"/>
      <point x="242.0" y="597" type="line" smooth="yes"/>
      <point x="242.0" y="683"/>
      <point x="290.0" y="708"/>
      <point x="359.0" y="708" type="curve"/>
    </contour>
  </outline>
</glyph>
<glyph name="greaterequal" format="1">
  <advance width="714"/>
  <unicode hex="2265"/>
  <outline>
    <contour>
      <point x="180.0" y="90" type="line"/>
      <point x="538.0" y="90" type="line"/>
      <point x="538.0" y="100" type="line"/>
      <point x="180.0" y="100" type="line"/>
    </contour>
    <component base="greater" yOffset="70"/>
  </outline>
</glyph>
<glyph name="lozenge" format="1">
  <advance width="731"/>
  <unicode hex="25CA"/>
  <outline>
    <contour>
      <point x="268.0" y="599" type="curve" smooth="yes"/>
      <point x="181.0" y="405" type="line" smooth="yes"/>
      <point x="173.0" y="387"/>
      <point x="172.0" y="381"/>
      <point x="172.0" y="367" type="curve" smooth="yes"/>
      <point x="172.0" y="353" type="line" smooth="yes"/>
      <point x="172.0" y="338"/>
      <point x="173.0" y="332"/>
      <point x="181.0" y="314" type="curve" smooth="yes"/>
      <point x="268.0" y="121" type="line" smooth="yes"/>
      <point x="276.0" y="104"/>
      <point x="286.0" y="97"/>
      <point x="304.0" y="97" type="curve" smooth="yes"/>
      <point x="425.0" y="97" type="line" smooth="yes"/>
      <point x="444.0" y="97"/>
      <point x="454.0" y="104"/>
      <point x="462.0" y="121" type="curve" smooth="yes"/>
      <point x="549.0" y="314" type="line" smooth="yes"/>
      <point x="557.0" y="332"/>
      <point x="558.0" y="338"/>
      <point x="558.0" y="353" type="curve" smooth="yes"/>
      <point x="558.0" y="367" type="line" smooth="yes"/>
      <point x="558.0" y="381"/>
      <point x="557.0" y="387"/>
      <point x="549.0" y="405" type="curve" smooth="yes"/>
      <point x="461.0" y="599" type="line" smooth="yes"/>
      <point x="453.0" y="616"/>
      <point x="443.0" y="623"/>
      <point x="425.0" y="623" type="curve" smooth="yes"/>
      <point x="305.0" y="623" type="line" smooth="yes"/>
      <point x="286.0" y="623"/>
      <point x="276.0" y="616"/>
    </contour>
    <contour>
      <point x="425.0" y="613" type="line" smooth="yes"/>
      <point x="439.0" y="613"/>
      <point x="445.0" y="608"/>
      <point x="451.0" y="595" type="curve" smooth="yes"/>
      <point x="539.0" y="401" type="line" smooth="yes"/>
      <point x="547.0" y="385"/>
      <point x="548.0" y="379"/>
      <point x="548.0" y="367" type="curve" smooth="yes"/>
      <point x="548.0" y="353" type="line" smooth="yes"/>
      <point x="548.0" y="340"/>
      <point x="547.0" y="334"/>
      <point x="539.0" y="318" type="curve" smooth="yes"/>
      <point x="452.0" y="125" type="line" smooth="yes"/>
      <point x="446.0" y="112"/>
      <point x="440.0" y="107"/>
      <point x="425.0" y="107" type="curve" smooth="yes"/>
      <point x="304.0" y="107" type="line" smooth="yes"/>
      <point x="290.0" y="107"/>
      <point x="284.0" y="112"/>
      <point x="278.0" y="125" type="curve" smooth="yes"/>
      <point x="191.0" y="318" type="line" smooth="yes"/>
      <point x="183.0" y="334"/>
      <point x="182.0" y="340"/>
      <point x="182.0" y="353" type="curve" smooth="yes"/>
      <point x="182.0" y="367" type="line" smooth="yes"/>
      <point x="182.0" y="379"/>
      <point x="183.0" y="385"/>
      <point x="191.0" y="401" type="curve" smooth="yes"/>
      <point x="278.0" y="595" type="line" smooth="yes"/>
      <point x="284.0" y="608"/>
      <point x="290.0" y="613"/>
      <point x="305.0" y="613" type="curve" smooth="yes"/>
    </contour>
  </outline>
</glyph>
<glyph name="uni25DC" format="1">
  <advance width="1000.0"/>
  <unicode hex="25DC"/>
  <outline>
    <contour>
      <point x="1020.0" y="880" type="line"/>
      <point x="871.0" y="880" type="line" smooth="yes"/>
      <point x="275.0" y="880"/>
      <point x="-20.0" y="585"/>
      <point x="-20.0" y="-11" type="curve" smooth="yes"/>
      <point x="-20.0" y="-160" type="line"/>
      <point x="1020.0" y="-160" type="line"/>
    </contour>
    <contour>
      <point x="1010.0" y="-150" type="line"/>
      <point x="-10.0" y="-150" type="line"/>
      <point x="-10.0" y="-11" type="line"/>
      <point x="-10.0" y="579"/>
      <point x="281.0" y="870"/>
      <point x="871.0" y="870" type="curve" smooth="yes"/>
      <point x="1010.0" y="870" type="line"/>
    </contour>
  </outline>
</glyph>
<glyph name="Eogonek.salt" format="1">
  <advance width="643"/>
  <unicode hex="E112"/>
  <outline>
    <contour>
      <point x="504" y="-106" type="line"/>
      <point x="480" y="-106" type="line" smooth="yes"/>
      <point x="439" y="-106"/>
      <point x="434" y="-83"/>
      <point x="439" y="-43" type="curve" smooth="yes"/>
      <point x="451" y="42" type="line" smooth="yes"/>
      <point x="455" y="71"/>
      <point x="459" y="76"/>
      <point x="484" y="90" type="curve"/>
      <point x="504" y="90" type="line"/>
      <point x="504" y="100" type="line"/>
      <point x="322" y="100" type="line" smooth="yes"/>
      <point x="202" y="100"/>
      <point x="172" y="132"/>
      <point x="172" y="219" type="curve" smooth="yes"/>
      <point x="172" y="359" type="line"/>
      <point x="434" y="359" type="line"/>
      <point x="434" y="369" type="line"/>
      <point x="172" y="369" type="line"/>
      <point x="172" y="499" type="line" smooth="yes"/>
      <point x="172" y="588"/>
      <point x="204" y="620"/>
      <point x="322" y="620" type="curve" smooth="yes"/>
      <point x="504" y="620" type="line"/>
      <point x="504" y="630" type="line"/>
      <point x="322" y="630" type="line" smooth="yes"/>
      <point x="194" y="630"/>
      <point x="162" y="594"/>
      <point x="162" y="499" type="curve" smooth="yes"/>
      <point x="162" y="219" type="line" smooth="yes"/>
      <point x="162" y="126"/>
      <point x="192" y="90"/>
      <point x="322" y="90" type="curve" smooth="yes"/>
      <point x="465" y="90" type="line"/>
      <point x="449" y="78"/>
      <point x="445" y="68"/>
      <point x="441" y="42" type="curve" smooth="yes"/>
      <point x="429" y="-41" type="line" smooth="yes"/>
      <point x="421" y="-91"/>
      <point x="431" y="-116"/>
      <point x="480" y="-116" type="curve" smooth="yes"/>
      <point x="504" y="-116" type="line"/>
    </contour>
  </outline>
</glyph>
<glyph name="Igrave.salt" format="1">
  <advance width="371.0"/>
  <unicode hex="E115"/>
  <outline>
    <contour>
      <point x="80" y="865" type="line"/>
      <point x="289" y="839" type="line"/>
      <point x="289" y="849" type="line"/>
      <point x="80" y="875" type="line"/>
    </contour>
    <contour>
      <point x="181" y="630" type="line"/>
      <point x="181" y="90" type="line"/>
      <point x="191" y="90" type="line"/>
      <point x="191" y="630" type="line"/>
    </contour>
  </outline>
</glyph>
<glyph name="Iacute.salt" format="1">
  <advance width="371.0"/>
  <unicode hex="E116"/>
  <outline>
    <contour>
      <point x="80" y="849" type="line"/>
      <point x="80" y="839" type="line"/>
      <point x="289" y="865" type="line"/>
      <point x="289" y="875" type="line"/>
    </contour>
    <contour>
      <point x="181" y="630" type="line"/>
      <point x="181" y="90" type="line"/>
      <point x="191" y="90" type="line"/>
      <point x="191" y="630" type="line"/>
    </contour>
  </outline>
</glyph>
<glyph name="L.salt" format="1">
  <advance width="615"/>
  <unicode hex="E11E"/>
  <outline>
    <contour>
      <point x="178" y="630" type="line"/>
      <point x="188" y="630" type="line"/>
      <point x="188" y="100" type="line"/>
      <point x="497" y="100" type="line"/>
      <point x="497" y="90" type="line"/>
      <point x="178" y="90" type="line"/>
    </contour>
  </outline>
</glyph>
<glyph name="Lslash.salt" format="1">
  <advance width="625"/>
  <unicode hex="E123"/>
  <outline>
    <contour>
      <point x="188" y="90" type="line"/>
      <point x="507" y="90" type="line"/>
      <point x="507" y="100" type="line"/>
      <point x="198" y="100" type="line"/>
      <point x="198" y="393" type="line"/>
      <point x="310" y="411" type="line"/>
      <point x="310" y="421" type="line"/>
      <point x="198" y="403" type="line"/>
      <point x="198" y="630" type="line"/>
      <point x="188" y="630" type="line"/>
      <point x="188" y="401" type="line"/>
      <point x="110" y="388" type="line"/>
      <point x="110" y="378" type="line"/>
      <point x="188" y="391" type="line"/>
    </contour>
  </outline>
</glyph>
<glyph name="W.salt" format="1">
  <advance width="1070.0"/>
  <unicode hex="E12A"/>
  <outline>
    <contour>
      <point x="719.0" y="78" type="curve" smooth="yes"/>
      <point x="866.0" y="78"/>
      <point x="909.0" y="132"/>
      <point x="909.0" y="213" type="curve" smooth="yes"/>
      <point x="909.0" y="630" type="line"/>
      <point x="899.0" y="630" type="line"/>
      <point x="899.0" y="213" type="line" smooth="yes"/>
      <point x="899.0" y="138"/>
      <point x="858.0" y="88"/>
      <point x="719.0" y="88" type="curve" smooth="yes"/>
      <point x="580.0" y="88"/>
      <point x="540.0" y="138"/>
      <point x="540.0" y="213" type="curve" smooth="yes"/>
      <point x="540.0" y="630" type="line"/>
      <point x="530.0" y="630" type="line"/>
      <point x="530.0" y="213" type="line" smooth="yes"/>
      <point x="530.0" y="138"/>
      <point x="489.0" y="88"/>
      <point x="350.0" y="88" type="curve" smooth="yes"/>
      <point x="211.0" y="88"/>
      <point x="171.0" y="138"/>
      <point x="171.0" y="213" type="curve" smooth="yes"/>
      <point x="171.0" y="630" type="line"/>
      <point x="161.0" y="630" type="line"/>
      <point x="161.0" y="213" type="line" smooth="yes"/>
      <point x="161.0" y="132"/>
      <point x="203.0" y="78"/>
      <point x="350.0" y="78" type="curve" smooth="yes"/>
      <point x="472.0" y="78"/>
      <point x="521.0" y="115"/>
      <point x="535.0" y="174" type="curve"/>
      <point x="548.0" y="115"/>
      <point x="597.0" y="78"/>
    </contour>
    <contour>
      <point x="535.0" y="747.0" type="move" name="top"/>
    </contour>
    <contour>
      <point x="535.0" y="0.0" type="move" name="bottom"/>
    </contour>
  </outline>
</glyph>
<glyph name="uni2B1B.trapezoid_e" format="1">
  <advance width="1280.0"/>
  <unicode hex="E15F"/>
  <outline>
    <contour>
      <point x="120" y="880" type="line"/>
      <point x="120" y="-160" type="line"/>
      <point x="1056" y="-160" type="line"/>
      <point x="1262" y="880" type="line"/>
    </contour>
    <contour>
      <point x="1250" y="870" type="line"/>
      <point x="1048" y="-150" type="line"/>
      <point x="130" y="-150" type="line"/>
      <point x="130" y="870" type="line"/>
    </contour>
  </outline>
</glyph>
<glyph name="Aogonek.v" format="1">
  <advance width="1000"/>
  <unicode hex="E192"/>
  <outline>
    <contour>
      <point x="314" y="323" type="line"/>
      <point x="314" y="359"/>
      <point x="320" y="389"/>
      <point x="330" y="416" type="curve"/>
      <point x="384" y="560" type="line"/>
      <point x="397" y="594"/>
      <point x="418" y="620"/>
      <point x="458" y="620" type="curve" smooth="yes"/>
      <point x="535" y="620" type="line" smooth="yes"/>
      <point x="572" y="620"/>
      <point x="593" y="594"/>
      <point x="608" y="559" type="curve"/>
      <point x="667" y="416" type="line"/>
      <point x="677" y="389"/>
      <point x="683" y="359"/>
      <point x="683" y="323" type="curve"/>
      <point x="683" y="292" type="line"/>
      <point x="314" y="292" type="line"/>
    </contour>
    <contour>
      <point x="711" y="-66" type="line"/>
      <point x="687" y="-66" type="line" smooth="yes"/>
      <point x="646" y="-66"/>
      <point x="641" y="-43"/>
      <point x="646" y="-3" type="curve" smooth="yes"/>
      <point x="658" y="82" type="line" smooth="yes"/>
      <point x="662" y="111"/>
      <point x="666" y="116"/>
      <point x="691" y="130" type="curve"/>
      <point x="693" y="130" type="line"/>
      <point x="693" y="323" type="line" smooth="yes"/>
      <point x="693" y="360"/>
      <point x="688" y="390"/>
      <point x="676" y="420" type="curve" smooth="yes"/>
      <point x="617" y="563" type="line" smooth="yes"/>
      <point x="601" y="601"/>
      <point x="579" y="630"/>
      <point x="535" y="630" type="curve" smooth="yes"/>
      <point x="458" y="630" type="line" smooth="yes"/>
      <point x="412" y="630"/>
      <point x="389" y="601"/>
      <point x="375" y="564" type="curve" smooth="yes"/>
      <point x="321" y="420" type="line"/>
      <point x="310" y="391"/>
      <point x="304" y="360"/>
      <point x="304" y="323" type="curve" smooth="yes"/>
      <point x="304" y="130" type="line"/>
      <point x="314" y="130" type="line"/>
      <point x="314" y="282" type="line"/>
      <point x="683" y="282" type="line"/>
      <point x="683" y="137" type="line"/>
      <point x="657" y="122"/>
      <point x="653" y="114"/>
      <point x="648" y="82" type="curve" smooth="yes"/>
      <point x="636" y="-1" type="line" smooth="yes"/>
      <point x="628" y="-51"/>
      <point x="638" y="-76"/>
      <point x="687" y="-76" type="curve" smooth="yes"/>
      <point x="711" y="-76" type="line"/>
    </contour>
  </outline>
</glyph>
<glyph name="Ccedilla.v" format="1">
  <advance width="1000"/>
  <unicode hex="E193"/>
  <outline>
    <contour>
      <point x="701" y="130" type="line"/>
      <point x="701" y="140" type="line"/>
      <point x="465" y="140" type="line" smooth="yes"/>
      <point x="345" y="140"/>
      <point x="315" y="172"/>
      <point x="315" y="259" type="curve" smooth="yes"/>
      <point x="315" y="499" type="line" smooth="yes"/>
      <point x="315" y="588"/>
      <point x="347" y="620"/>
      <point x="465" y="620" type="curve" smooth="yes"/>
      <point x="701" y="620" type="line"/>
      <point x="701" y="630" type="line"/>
      <point x="465" y="630" type="line" smooth="yes"/>
      <point x="337" y="630"/>
      <point x="305" y="594"/>
      <point x="305" y="499" type="curve" smooth="yes"/>
      <point x="305" y="259" type="line" smooth="yes"/>
      <point x="305" y="166"/>
      <point x="335" y="130"/>
      <point x="465" y="130" type="curve" smooth="yes"/>
      <point x="539" y="130" type="line"/>
      <point x="494" y="4" type="line"/>
      <point x="504" y="4" type="line"/>
      <point x="550" y="130" type="line"/>
    </contour>
  </outline>
</glyph>
<glyph name="Iogonek.v" format="1">
  <advance width="1000"/>
  <unicode hex="E1AE"/>
  <outline>
    <contour>
      <point x="701" y="-66" type="line"/>
      <point x="677" y="-66" type="line" smooth="yes"/>
      <point x="636" y="-66"/>
      <point x="631" y="-43"/>
      <point x="636" y="-3" type="curve" smooth="yes"/>
      <point x="648" y="82" type="line" smooth="yes"/>
      <point x="652" y="111"/>
      <point x="656" y="116"/>
      <point x="681" y="130" type="curve"/>
      <point x="701" y="130" type="line"/>
      <point x="701" y="140" type="line"/>
      <point x="505" y="140" type="line"/>
      <point x="505" y="620" type="line"/>
      <point x="701" y="620" type="line"/>
      <point x="701" y="630" type="line"/>
      <point x="299" y="630" type="line"/>
      <point x="299" y="620" type="line"/>
      <point x="495" y="620" type="line"/>
      <point x="495" y="140" type="line"/>
      <point x="299" y="140" type="line"/>
      <point x="299" y="130" type="line"/>
      <point x="662" y="130" type="line"/>
      <point x="646" y="118"/>
      <point x="642" y="108"/>
      <point x="638" y="82" type="curve" smooth="yes"/>
      <point x="626" y="-1" type="line" smooth="yes"/>
      <point x="618" y="-51"/>
      <point x="628" y="-76"/>
      <point x="677" y="-76" type="curve" smooth="yes"/>
      <point x="701" y="-76" type="line"/>
    </contour>
  </outline>
</glyph>
<glyph name="Oslash.v" format="1">
  <advance width="1000"/>
  <unicode hex="E1E2"/>
  <outline>
    <contour>
      <point x="315.0" y="212" type="curve" smooth="yes"/>
      <point x="315.0" y="507" type="line" smooth="yes"/>
      <point x="315.0" y="582"/>
      <point x="355.0" y="632"/>
      <point x="499.0" y="632" type="curve" smooth="yes"/>
      <point x="543.0" y="632"/>
      <point x="577.0" y="627"/>
      <point x="604.0" y="619" type="curve"/>
      <point x="385.0" y="103" type="line"/>
      <point x="332.0" y="124"/>
      <point x="315.0" y="163"/>
    </contour>
    <contour>
      <point x="499.0" y="87" type="curve" smooth="yes"/>
      <point x="455.0" y="87"/>
      <point x="421.0" y="92"/>
      <point x="395.0" y="100" type="curve"/>
      <point x="613.0" y="616" type="line"/>
      <point x="667.0" y="595"/>
      <point x="686.0" y="556"/>
      <point x="686.0" y="507" type="curve" smooth="yes"/>
      <point x="686.0" y="212" type="line" smooth="yes"/>
      <point x="686.0" y="137"/>
      <point x="643.0" y="87"/>
    </contour>
    <contour>
      <point x="361.0" y="20" type="line"/>
      <point x="391.0" y="91" type="line"/>
      <point x="418.0" y="82"/>
      <point x="454.0" y="77"/>
      <point x="499.0" y="77" type="curve" smooth="yes"/>
      <point x="651.0" y="77"/>
      <point x="696.0" y="131"/>
      <point x="696.0" y="212" type="curve" smooth="yes"/>
      <point x="696.0" y="507" type="line" smooth="yes"/>
      <point x="696.0" y="561"/>
      <point x="676.0" y="603"/>
      <point x="617.0" y="625" type="curve"/>
      <point x="649.0" y="700" type="line"/>
      <point x="638.0" y="700" type="line"/>
      <point x="608.0" y="628" type="line"/>
      <point x="580.0" y="637"/>
      <point x="544.0" y="642"/>
      <point x="499.0" y="642" type="curve" smooth="yes"/>
      <point x="347.0" y="642"/>
      <point x="305.0" y="588"/>
      <point x="305.0" y="507" type="curve" smooth="yes"/>
      <point x="305.0" y="212" type="line" smooth="yes"/>
      <point x="305.0" y="158"/>
      <point x="324.0" y="116"/>
      <point x="381.0" y="94" type="curve"/>
      <point x="350.0" y="20" type="line"/>
    </contour>
  </outline>
</glyph>
<glyph name="Ldot.v" format="1">
  <advance width="1000"/>
  <unicode hex="E1E7"/>
  <outline>
    <contour>
      <point x="310" y="130" type="line"/>
      <point x="697" y="130" type="line"/>
      <point x="697" y="327" type="line"/>
      <point x="687" y="327" type="line"/>
      <point x="687" y="140" type="line"/>
      <point x="320" y="140" type="line"/>
      <point x="320" y="630" type="line"/>
      <point x="310" y="630" type="line"/>
    </contour>
    <contour>
      <point x="512" y="-148" type="line"/>
      <point x="522" y="-148" type="line"/>
      <point x="522" y="-93" type="line"/>
      <point x="512" y="-93" type="line"/>
    </contour>
  </outline>
</glyph>
<glyph name="OE.v" format="1">
  <advance width="1000"/>
  <unicode hex="E1EA"/>
  <outline>
    <contour>
      <point x="426.0" y="100" type="line"/>
      <point x="309.0" y="100"/>
      <point x="287.0" y="151"/>
      <point x="286.0" y="221" type="curve"/>
      <point x="286.0" y="491" type="line"/>
      <point x="286.0" y="564"/>
      <point x="308.0" y="620"/>
      <point x="426.0" y="620" type="curve" smooth="yes"/>
      <point x="576.0" y="620" type="line"/>
      <point x="576.0" y="100" type="line"/>
    </contour>
    <contour>
      <point x="426.0" y="90" type="curve" smooth="yes"/>
      <point x="731.0" y="90" type="line"/>
      <point x="731.0" y="100" type="line"/>
      <point x="586.0" y="100" type="line"/>
      <point x="586.0" y="360" type="line"/>
      <point x="730.0" y="360" type="line"/>
      <point x="730.0" y="370" type="line"/>
      <point x="586.0" y="370" type="line"/>
      <point x="586.0" y="620" type="line"/>
      <point x="731.0" y="620" type="line"/>
      <point x="731.0" y="630" type="line"/>
      <point x="426.0" y="630" type="line" smooth="yes"/>
      <point x="299.0" y="630"/>
      <point x="276.0" y="568"/>
      <point x="276.0" y="491" type="curve" smooth="yes"/>
      <point x="276.0" y="226" type="line" smooth="yes"/>
      <point x="276.0" y="149"/>
      <point x="297.0" y="90"/>
    </contour>
  </outline>
</glyph>
<glyph name="Aogonek.salt_v" format="1">
  <advance width="1000"/>
  <unicode hex="E1F6"/>
  <outline>
    <contour>
      <point x="315" y="467" type="line" smooth="yes"/>
      <point x="315" y="542"/>
      <point x="350" y="592"/>
      <point x="499" y="592" type="curve" smooth="yes"/>
      <point x="646" y="592"/>
      <point x="683" y="542"/>
      <point x="683" y="467" type="curve" smooth="yes"/>
      <point x="683" y="261" type="line"/>
      <point x="315" y="261" type="line"/>
    </contour>
    <contour>
      <point x="713" y="-106" type="line"/>
      <point x="689" y="-106" type="line" smooth="yes"/>
      <point x="648" y="-106"/>
      <point x="643" y="-83"/>
      <point x="648" y="-43" type="curve" smooth="yes"/>
      <point x="660" y="42" type="line" smooth="yes"/>
      <point x="664" y="71"/>
      <point x="668" y="76"/>
      <point x="693" y="90" type="curve"/>
      <point x="693" y="467" type="line" smooth="yes"/>
      <point x="693" y="548"/>
      <point x="654" y="602"/>
      <point x="499" y="602" type="curve" smooth="yes"/>
      <point x="342" y="602"/>
      <point x="305" y="548"/>
      <point x="305" y="467" type="curve" smooth="yes"/>
      <point x="305" y="90" type="line"/>
      <point x="315" y="90" type="line"/>
      <point x="315" y="251" type="line"/>
      <point x="683" y="251" type="line"/>
      <point x="683" y="96" type="line"/>
      <point x="659" y="82"/>
      <point x="655" y="74"/>
      <point x="650" y="42" type="curve" smooth="yes"/>
      <point x="638" y="-41" type="line" smooth="yes"/>
      <point x="630" y="-91"/>
      <point x="640" y="-116"/>
      <point x="689" y="-116" type="curve" smooth="yes"/>
      <point x="713" y="-116" type="line"/>
    </contour>
  </outline>
</glyph>
<glyph name="Eogonek.salt_v" format="1">
  <advance width="1000"/>
  <unicode hex="E1FF"/>
  <outline>
    <contour>
      <point x="700" y="-66" type="line"/>
      <point x="676" y="-66" type="line" smooth="yes"/>
      <point x="635" y="-66"/>
      <point x="630" y="-43"/>
      <point x="635" y="-3" type="curve" smooth="yes"/>
      <point x="647" y="82" type="line" smooth="yes"/>
      <point x="651" y="111"/>
      <point x="655" y="116"/>
      <point x="680" y="130" type="curve"/>
      <point x="700" y="130" type="line"/>
      <point x="700" y="140" type="line"/>
      <point x="468" y="140" type="line" smooth="yes"/>
      <point x="348" y="140"/>
      <point x="318" y="172"/>
      <point x="318" y="259" type="curve" smooth="yes"/>
      <point x="318" y="379" type="line"/>
      <point x="620" y="379" type="line"/>
      <point x="620" y="389" type="line"/>
      <point x="318" y="389" type="line"/>
      <point x="318" y="499" type="line" smooth="yes"/>
      <point x="318" y="588"/>
      <point x="350" y="620"/>
      <point x="468" y="620" type="curve" smooth="yes"/>
      <point x="700" y="620" type="line"/>
      <point x="700" y="630" type="line"/>
      <point x="468" y="630" type="line" smooth="yes"/>
      <point x="340" y="630"/>
      <point x="308" y="594"/>
      <point x="308" y="499" type="curve" smooth="yes"/>
      <point x="308" y="259" type="line" smooth="yes"/>
      <point x="308" y="166"/>
      <point x="338" y="130"/>
      <point x="468" y="130" type="curve" smooth="yes"/>
      <point x="661" y="130" type="line"/>
      <point x="645" y="118"/>
      <point x="641" y="108"/>
      <point x="637" y="82" type="curve" smooth="yes"/>
      <point x="625" y="-1" type="line" smooth="yes"/>
      <point x="617" y="-51"/>
      <point x="627" y="-76"/>
      <point x="676" y="-76" type="curve" smooth="yes"/>
      <point x="700" y="-76" type="line"/>
    </contour>
  </outline>
</glyph>
<glyph name="I.salt_v" format="1">
  <advance width="1000"/>
  <unicode hex="E201"/>
  <outline>
    <contour>
      <point x="495.0" y="630" type="line"/>
      <point x="495.0" y="90" type="line"/>
      <point x="505.0" y="90" type="line"/>
      <point x="505.0" y="630" type="line"/>
    </contour>
    <contour>
      <point x="499.0" y="747.0" type="move" name="top"/>
    </contour>
    <contour>
      <point x="499.0" y="0.0" type="move" name="bottom"/>
    </contour>
  </outline>
</glyph>
<glyph name="Iogonek.salt_v" format="1">
  <advance width="1000"/>
  <unicode hex="E20A"/>
  <outline>
    <contour>
      <point x="521" y="-106" type="line"/>
      <point x="497" y="-106" type="line" smooth="yes"/>
      <point x="456" y="-106"/>
      <point x="451" y="-83"/>
      <point x="456" y="-43" type="curve" smooth="yes"/>
      <point x="468" y="42" type="line" smooth="yes"/>
      <point x="472" y="71"/>
      <point x="476" y="76"/>
      <point x="501" y="90" type="curve"/>
      <point x="505" y="90" type="line"/>
      <point x="505" y="590" type="line"/>
      <point x="495" y="590" type="line"/>
      <point x="495" y="98" type="line"/>
      <point x="467" y="82"/>
      <point x="463" y="74"/>
      <point x="458" y="42" type="curve" smooth="yes"/>
      <point x="446" y="-41" type="line" smooth="yes"/>
      <point x="438" y="-91"/>
      <point x="448" y="-116"/>
      <point x="497" y="-116" type="curve" smooth="yes"/>
      <point x="521" y="-116" type="line"/>
    </contour>
  </outline>
</glyph>
<glyph name="Ncommaaccent.salt_v" format="1">
  <advance width="1000"/>
  <unicode hex="E217"/>
  <outline>
    <contour>
      <point x="690" y="210" type="line"/>
      <point x="690" y="507" type="line" smooth="yes"/>
      <point x="690" y="588"/>
      <point x="649" y="642"/>
      <point x="499" y="642" type="curve" smooth="yes"/>
      <point x="349" y="642"/>
      <point x="307" y="588"/>
      <point x="307" y="507" type="curve" smooth="yes"/>
      <point x="307" y="210" type="line"/>
      <point x="317" y="210" type="line"/>
      <point x="317" y="507" type="line" smooth="yes"/>
      <point x="317" y="582"/>
      <point x="357" y="632"/>
      <point x="499" y="632" type="curve" smooth="yes"/>
      <point x="641" y="632"/>
      <point x="680" y="582"/>
      <point x="680" y="507" type="curve" smooth="yes"/>
      <point x="680" y="210" type="line"/>
    </contour>
    <contour>
      <point x="435" y="16" type="line"/>
      <point x="435" y="6" type="line"/>
      <point x="557" y="6" type="line"/>
      <point x="557" y="-71" type="line" smooth="yes"/>
      <point x="557" y="-118"/>
      <point x="531" y="-142"/>
      <point x="489" y="-142" type="curve" smooth="yes"/>
      <point x="435" y="-142" type="line"/>
      <point x="435" y="-152" type="line"/>
      <point x="489" y="-152" type="line" smooth="yes"/>
      <point x="537" y="-152"/>
      <point x="567" y="-125"/>
      <point x="567" y="-71" type="curve" smooth="yes"/>
      <point x="567" y="16" type="line"/>
    </contour>
  </outline>
</glyph>
<glyph name="parenright.v" format="1">
  <advance width="1000"/>
  <unicode hex="E22C"/>
  <outline>
    <contour>
      <point x="839.0" y="438" type="line"/>
      <point x="839.0" y="359"/>
      <point x="818.0" y="311"/>
      <point x="736.0" y="311" type="curve" smooth="yes"/>
      <point x="265.0" y="311" type="line" smooth="yes"/>
      <point x="183.0" y="311"/>
      <point x="162.0" y="358"/>
      <point x="162.0" y="438" type="curve"/>
      <point x="152.0" y="438" type="line"/>
      <point x="152.0" y="350"/>
      <point x="177.0" y="301"/>
      <point x="265.0" y="301" type="curve" smooth="yes"/>
      <point x="736.0" y="301" type="line" smooth="yes"/>
      <point x="824.0" y="301"/>
      <point x="849.0" y="351"/>
      <point x="849.0" y="438" type="curve"/>
    </contour>
  </outline>
</glyph>
<glyph name="bracketright.v" format="1">
  <advance width="1000"/>
  <unicode hex="E22E"/>
  <outline>
    <contour>
      <point x="849.0" y="301" type="line"/>
      <point x="849.0" y="438" type="line"/>
      <point x="839.0" y="438" type="line"/>
      <point x="839.0" y="311" type="line"/>
      <point x="162.0" y="311" type="line"/>
      <point x="162.0" y="438" type="line"/>
      <point x="152.0" y="438" type="line"/>
      <point x="152.0" y="301" type="line"/>
    </contour>
  </outline>
</glyph>
<glyph name="braceright.v" format="1">
  <advance width="1000"/>
  <unicode hex="E230"/>
  <outline>
    <contour>
      <point x="265.0" y="338" type="curve" smooth="yes"/>
      <point x="416.0" y="338" type="line"/>
      <point x="422.0" y="298"/>
      <point x="443.0" y="274"/>
      <point x="485.0" y="274" type="curve" smooth="yes"/>
      <point x="513.0" y="274" type="line" smooth="yes"/>
      <point x="556.0" y="274"/>
      <point x="576.0" y="298"/>
      <point x="582.0" y="338" type="curve"/>
      <point x="736.0" y="338" type="line" smooth="yes"/>
      <point x="821.0" y="338"/>
      <point x="849.0" y="377"/>
      <point x="849.0" y="465" type="curve"/>
      <point x="839.0" y="465" type="line"/>
      <point x="839.0" y="385"/>
      <point x="815.0" y="348"/>
      <point x="736.0" y="348" type="curve" smooth="yes"/>
      <point x="574.0" y="348" type="line"/>
      <point x="569.0" y="301"/>
      <point x="550.0" y="284"/>
      <point x="513.0" y="284" type="curve" smooth="yes"/>
      <point x="485.0" y="284" type="line" smooth="yes"/>
      <point x="448.0" y="284"/>
      <point x="429.0" y="302"/>
      <point x="424.0" y="348" type="curve"/>
      <point x="265.0" y="348" type="line" smooth="yes"/>
      <point x="195.0" y="348"/>
      <point x="162.0" y="386"/>
      <point x="162.0" y="465" type="curve"/>
      <point x="152.0" y="465" type="line"/>
      <point x="152.0" y="378"/>
      <point x="189.0" y="338"/>
    </contour>
  </outline>
</glyph>
<glyph name="perthousand.v" format="1">
  <advance width="1000"/>
  <unicode hex="E242"/>
  <outline>
    <contour>
      <point x="372.0" y="584" type="line" smooth="yes"/>
      <point x="372.0" y="642"/>
      <point x="344.0" y="664"/>
      <point x="272.0" y="664" type="curve" smooth="yes"/>
      <point x="201.0" y="664"/>
      <point x="171.0" y="642"/>
      <point x="171.0" y="584" type="curve" smooth="yes"/>
      <point x="171.0" y="487" type="line" smooth="yes"/>
      <point x="171.0" y="429"/>
      <point x="201.0" y="408"/>
      <point x="272.0" y="408" type="curve" smooth="yes"/>
      <point x="344.0" y="408"/>
      <point x="372.0" y="429"/>
      <point x="372.0" y="487" type="curve" smooth="yes"/>
    </contour>
    <contour>
      <point x="272.0" y="418" type="curve" smooth="yes"/>
      <point x="211.0" y="418"/>
      <point x="181.0" y="435"/>
      <point x="181.0" y="487" type="curve" smooth="yes"/>
      <point x="181.0" y="584" type="line" smooth="yes"/>
      <point x="181.0" y="636"/>
      <point x="211.0" y="654"/>
      <point x="272.0" y="654" type="curve" smooth="yes"/>
      <point x="334.0" y="654"/>
      <point x="362.0" y="636"/>
      <point x="362.0" y="584" type="curve" smooth="yes"/>
      <point x="362.0" y="487" type="line" smooth="yes"/>
      <point x="362.0" y="435"/>
      <point x="334.0" y="418"/>
    </contour>
    <contour>
      <point x="231.0" y="90" type="line"/>
      <point x="592.0" y="630" type="line"/>
      <point x="580.0" y="630" type="line"/>
      <point x="219.0" y="90" type="line"/>
    </contour>
    <contour>
      <point x="731.0" y="56" type="curve" smooth="yes"/>
      <point x="803.0" y="56"/>
      <point x="831.0" y="77"/>
      <point x="831.0" y="135" type="curve" smooth="yes"/>
      <point x="831.0" y="232" type="line" smooth="yes"/>
      <point x="831.0" y="290"/>
      <point x="803.0" y="312"/>
      <point x="731.0" y="312" type="curve" smooth="yes"/>
      <point x="678.0" y="312"/>
      <point x="646.0" y="299"/>
      <point x="634.0" y="266" type="curve"/>
      <point x="623.0" y="299"/>
      <point x="593.0" y="312"/>
      <point x="539.0" y="312" type="curve" smooth="yes"/>
      <point x="468.0" y="312"/>
      <point x="438.0" y="290"/>
      <point x="438.0" y="232" type="curve" smooth="yes"/>
      <point x="438.0" y="135" type="line" smooth="yes"/>
      <point x="438.0" y="77"/>
      <point x="468.0" y="56"/>
      <point x="539.0" y="56" type="curve" smooth="yes"/>
      <point x="593.0" y="56"/>
      <point x="623.0" y="69"/>
      <point x="634.0" y="101" type="curve"/>
      <point x="646.0" y="69"/>
      <point x="678.0" y="56"/>
    </contour>
    <contour>
      <point x="731.0" y="66" type="curve" smooth="yes"/>
      <point x="670.0" y="66"/>
      <point x="639.0" y="83"/>
      <point x="639.0" y="135" type="curve" smooth="yes"/>
      <point x="639.0" y="232" type="line" smooth="yes"/>
      <point x="639.0" y="284"/>
      <point x="670.0" y="302"/>
      <point x="731.0" y="302" type="curve" smooth="yes"/>
      <point x="793.0" y="302"/>
      <point x="821.0" y="284"/>
      <point x="821.0" y="232" type="curve" smooth="yes"/>
      <point x="821.0" y="135" type="line" smooth="yes"/>
      <point x="821.0" y="83"/>
      <point x="793.0" y="66"/>
    </contour>
    <contour>
      <point x="539.0" y="66" type="curve" smooth="yes"/>
      <point x="478.0" y="66"/>
      <point x="448.0" y="83"/>
      <point x="448.0" y="135" type="curve" smooth="yes"/>
      <point x="448.0" y="232" type="line" smooth="yes"/>
      <point x="448.0" y="284"/>
      <point x="478.0" y="302"/>
      <point x="539.0" y="302" type="curve" smooth="yes"/>
      <point x="601.0" y="302"/>
      <point x="629.0" y="284"/>
      <point x="629.0" y="232" type="curve" smooth="yes"/>
      <point x="629.0" y="135" type="line" smooth="yes"/>
      <point x="629.0" y="83"/>
      <point x="601.0" y="66"/>
    </contour>
  </outline>
</glyph>
<glyph name="D.s_v" format="1">
  <advance width="1000"/>
  <unicode hex="E248"/>
  <outline>
    <contour>
      <point x="309.0" y="90" type="line"/>
      <point x="537.0" y="90" type="line" smooth="yes"/>
      <point x="675.0" y="90"/>
      <point x="697.0" y="149"/>
      <point x="697.0" y="226" type="curve" smooth="yes"/>
      <point x="697.0" y="451" type="line" smooth="yes"/>
      <point x="697.0" y="528"/>
      <point x="673.0" y="590"/>
      <point x="537.0" y="590" type="curve" smooth="yes"/>
      <point x="309.0" y="590" type="line"/>
    </contour>
    <contour>
      <point x="537.0" y="580" type="line" smooth="yes"/>
      <point x="663.0" y="580"/>
      <point x="687.0" y="524"/>
      <point x="687.0" y="451" type="curve" smooth="yes"/>
      <point x="687.0" y="226" type="line" smooth="yes"/>
      <point x="687.0" y="153"/>
      <point x="665.0" y="100"/>
      <point x="537.0" y="100" type="curve" smooth="yes"/>
      <point x="319.0" y="100" type="line"/>
      <point x="319.0" y="580" type="line"/>
    </contour>
  </outline>
</glyph>
<glyph name="K.s_v" format="1">
  <advance width="1000"/>
  <unicode hex="E24E"/>
  <outline>
    <contour>
      <point x="320.0" y="90" type="line"/>
      <point x="320.0" y="334" type="line"/>
      <point x="572.0" y="334" type="line" smooth="yes"/>
      <point x="646.0" y="334"/>
      <point x="683.0" y="310"/>
      <point x="683.0" y="246" type="curve" smooth="yes"/>
      <point x="683.0" y="90" type="line"/>
      <point x="693.0" y="90" type="line"/>
      <point x="693.0" y="246" type="line" smooth="yes"/>
      <point x="693.0" y="316"/>
      <point x="654.0" y="344"/>
      <point x="572.0" y="344" type="curve" smooth="yes"/>
      <point x="531.0" y="344" type="line"/>
      <point x="646.0" y="590" type="line"/>
      <point x="635.0" y="590" type="line"/>
      <point x="520.0" y="344" type="line"/>
      <point x="320.0" y="344" type="line"/>
      <point x="320.0" y="590" type="line"/>
      <point x="310.0" y="590" type="line"/>
      <point x="310.0" y="90" type="line"/>
    </contour>
  </outline>
</glyph>
<glyph name="W.salt_s_v" format="1">
  <advance width="1000"/>
  <unicode hex="E25D"/>
  <outline>
    <contour>
      <point x="627.0" y="78" type="curve" smooth="yes"/>
      <point x="729.0" y="78"/>
      <point x="758.0" y="132"/>
      <point x="758.0" y="213" type="curve" smooth="yes"/>
      <point x="758.0" y="590" type="line"/>
      <point x="748.0" y="590" type="line"/>
      <point x="748.0" y="213" type="line" smooth="yes"/>
      <point x="748.0" y="138"/>
      <point x="721.0" y="88"/>
      <point x="627.0" y="88" type="curve" smooth="yes"/>
      <point x="532.0" y="88"/>
      <point x="505.0" y="138"/>
      <point x="505.0" y="213" type="curve" smooth="yes"/>
      <point x="505.0" y="590" type="line"/>
      <point x="495.0" y="590" type="line"/>
      <point x="495.0" y="213" type="line" smooth="yes"/>
      <point x="495.0" y="138"/>
      <point x="468.0" y="88"/>
      <point x="374.0" y="88" type="curve" smooth="yes"/>
      <point x="280.0" y="88"/>
      <point x="251.0" y="138"/>
      <point x="251.0" y="213" type="curve" smooth="yes"/>
      <point x="251.0" y="590" type="line"/>
      <point x="241.0" y="590" type="line"/>
      <point x="241.0" y="213" type="line" smooth="yes"/>
      <point x="241.0" y="132"/>
      <point x="272.0" y="78"/>
      <point x="374.0" y="78" type="curve" smooth="yes"/>
      <point x="455.0" y="78"/>
      <point x="489.0" y="112"/>
      <point x="500.0" y="167" type="curve"/>
      <point x="511.0" y="112"/>
      <point x="546.0" y="78"/>
    </contour>
  </outline>
</glyph>
<glyph name="three.v" format="1">
  <advance width="1000"/>
  <unicode hex="FF13"/>
  <outline>
    <contour>
      <point x="578.0" y="359" type="line" smooth="yes"/>
      <point x="655.0" y="359"/>
      <point x="686.0" y="326"/>
      <point x="686.0" y="259" type="curve" smooth="yes"/>
      <point x="686.0" y="190" type="line" smooth="yes"/>
      <point x="686.0" y="135"/>
      <point x="665.0" y="100"/>
      <point x="565.0" y="100" type="curve" smooth="yes"/>
      <point x="290.0" y="100" type="line"/>
      <point x="290.0" y="90" type="line"/>
      <point x="565.0" y="90" type="line" smooth="yes"/>
      <point x="677.0" y="90"/>
      <point x="696.0" y="131"/>
      <point x="696.0" y="190" type="curve" smooth="yes"/>
      <point x="696.0" y="259" type="line" smooth="yes"/>
      <point x="696.0" y="329"/>
      <point x="663.0" y="367"/>
      <point x="580.0" y="367" type="curve" smooth="yes"/>
      <point x="564.0" y="367" type="line"/>
      <point x="624.0" y="380"/>
      <point x="630.0" y="422"/>
      <point x="630.0" y="460" type="curve" smooth="yes"/>
      <point x="630.0" y="524" type="line" smooth="yes"/>
      <point x="630.0" y="582"/>
      <point x="610.0" y="630"/>
      <point x="499.0" y="630" type="curve" smooth="yes"/>
      <point x="290.0" y="630" type="line"/>
      <point x="290.0" y="620" type="line"/>
      <point x="499.0" y="620" type="line"/>
      <point x="597.0" y="620"/>
      <point x="620.0" y="580"/>
      <point x="620.0" y="528" type="curve" smooth="yes"/>
      <point x="620.0" y="460" type="line" smooth="yes"/>
      <point x="620.0" y="412"/>
      <point x="610.0" y="369"/>
      <point x="509.0" y="369" type="curve" smooth="yes"/>
      <point x="371.0" y="369" type="line"/>
      <point x="371.0" y="359" type="line"/>
    </contour>
  </outline>
</glyph>
<glyph name="five.v" format="1">
  <advance width="1000"/>
  <unicode hex="FF15"/>
  <outline>
    <contour>
      <point x="290.0" y="90" type="line"/>
      <point x="579.0" y="90" type="line" smooth="yes"/>
      <point x="662.0" y="90"/>
      <point x="693.0" y="120"/>
      <point x="693.0" y="188" type="curve" smooth="yes"/>
      <point x="693.0" y="276" type="line" smooth="yes"/>
      <point x="693.0" y="345"/>
      <point x="658.0" y="374"/>
      <point x="588.0" y="374" type="curve" smooth="yes"/>
      <point x="329.0" y="374" type="line"/>
      <point x="329.0" y="620" type="line"/>
      <point x="676.0" y="620" type="line"/>
      <point x="676.0" y="630" type="line"/>
      <point x="319.0" y="630" type="line"/>
      <point x="319.0" y="364" type="line"/>
      <point x="588.0" y="364" type="line" smooth="yes"/>
      <point x="650.0" y="364"/>
      <point x="683.0" y="339"/>
      <point x="683.0" y="276" type="curve" smooth="yes"/>
      <point x="683.0" y="188" type="line" smooth="yes"/>
      <point x="683.0" y="126"/>
      <point x="654.0" y="100"/>
      <point x="579.0" y="100" type="curve" smooth="yes"/>
      <point x="290.0" y="100" type="line"/>
    </contour>
  </outline>
</glyph>
<glyph name="A.v" format="1">
  <advance width="1000"/>
  <unicode hex="FF21"/>
  <outline>
    <contour>
      <point x="314.0" y="303" type="line"/>
      <point x="314.0" y="339"/>
      <point x="320.0" y="369"/>
      <point x="330.0" y="396" type="curve"/>
      <point x="394.0" y="560" type="line"/>
      <point x="407.0" y="594"/>
      <point x="418.0" y="620"/>
      <point x="458.0" y="620" type="curve" smooth="yes"/>
      <point x="535.0" y="620" type="line" smooth="yes"/>
      <point x="572.0" y="620"/>
      <point x="583.0" y="594"/>
      <point x="598.0" y="559" type="curve"/>
      <point x="667.0" y="396" type="line"/>
      <point x="677.0" y="369"/>
      <point x="683.0" y="339"/>
      <point x="683.0" y="303" type="curve"/>
      <point x="683.0" y="272" type="line"/>
      <point x="314.0" y="272" type="line"/>
    </contour>
    <contour>
      <point x="683.0" y="90" type="line"/>
      <point x="693.0" y="90" type="line"/>
      <point x="693.0" y="303" type="line" smooth="yes"/>
      <point x="693.0" y="340"/>
      <point x="687.0" y="371"/>
      <point x="676.0" y="400" type="curve" smooth="yes"/>
      <point x="607.0" y="563" type="line" smooth="yes"/>
      <point x="591.0" y="602"/>
      <point x="579.0" y="630"/>
      <point x="535.0" y="630" type="curve" smooth="yes"/>
      <point x="458.0" y="630" type="line" smooth="yes"/>
      <point x="412.0" y="630"/>
      <point x="400.0" y="601"/>
      <point x="385.0" y="564" type="curve" smooth="yes"/>
      <point x="321.0" y="400" type="line"/>
      <point x="310.0" y="371"/>
      <point x="304.0" y="340"/>
      <point x="304.0" y="303" type="curve" smooth="yes"/>
      <point x="304.0" y="90" type="line"/>
      <point x="314.0" y="90" type="line"/>
      <point x="314.0" y="262" type="line"/>
      <point x="683.0" y="262" type="line"/>
    </contour>
  </outline>
</glyph>
<glyph name="I.v" format="1">
  <advance width="1000"/>
  <unicode hex="FF29"/>
  <outline>
    <contour>
      <point x="701.0" y="90" type="line"/>
      <point x="701.0" y="100" type="line"/>
      <point x="505.0" y="100" type="line"/>
      <point x="505.0" y="620" type="line"/>
      <point x="701.0" y="620" type="line"/>
      <point x="701.0" y="630" type="line"/>
      <point x="299.0" y="630" type="line"/>
      <point x="299.0" y="620" type="line"/>
      <point x="495.0" y="620" type="line"/>
      <point x="495.0" y="100" type="line"/>
      <point x="299.0" y="100" type="line"/>
      <point x="299.0" y="90" type="line"/>
    </contour>
  </outline>
</glyph>
<glyph name="P.v" format="1">
  <advance width="1000"/>
  <unicode hex="FF30"/>
  <outline>
    <contour>
      <point x="551.0" y="287" type="line" smooth="yes"/>
      <point x="677.0" y="287"/>
      <point x="701.0" y="342"/>
      <point x="701.0" y="420" type="curve" smooth="yes"/>
      <point x="701.0" y="494" type="line" smooth="yes"/>
      <point x="701.0" y="572"/>
      <point x="677.0" y="630"/>
      <point x="551.0" y="630" type="curve" smooth="yes"/>
      <point x="309.0" y="630" type="line"/>
      <point x="309.0" y="90" type="line"/>
      <point x="319.0" y="90" type="line"/>
      <point x="319.0" y="287" type="line"/>
    </contour>
    <contour>
      <point x="319.0" y="297" type="line"/>
      <point x="319.0" y="620" type="line"/>
      <point x="551.0" y="620" type="line" smooth="yes"/>
      <point x="669.0" y="620"/>
      <point x="691.0" y="566"/>
      <point x="691.0" y="494" type="curve" smooth="yes"/>
      <point x="691.0" y="420" type="line" smooth="yes"/>
      <point x="691.0" y="348"/>
      <point x="669.0" y="297"/>
      <point x="551.0" y="297" type="curve" smooth="yes"/>
    </contour>
  </outline>
</glyph>
<glyph name="S.v" format="1">
  <advance width="1000"/>
  <unicode hex="FF33"/>
  <outline>
    <contour>
      <point x="685.0" y="630" type="line"/>
      <point x="411.0" y="630" type="line" smooth="yes"/>
      <point x="348.0" y="630"/>
      <point x="309.0" y="595"/>
      <point x="309.0" y="539" type="curve" smooth="yes"/>
      <point x="309.0" y="447" type="line" smooth="yes"/>
      <point x="309.0" y="402"/>
      <point x="339.0" y="371"/>
      <point x="388.0" y="366" type="curve" smooth="yes"/>
      <point x="601.0" y="345" type="line" smooth="yes"/>
      <point x="656.0" y="340"/>
      <point x="682.0" y="312"/>
      <point x="682.0" y="264" type="curve" smooth="yes"/>
      <point x="682.0" y="181" type="line" smooth="yes"/>
      <point x="682.0" y="131"/>
      <point x="643.0" y="100"/>
      <point x="581.0" y="100" type="curve" smooth="yes"/>
      <point x="290.0" y="100" type="line"/>
      <point x="290.0" y="90" type="line"/>
      <point x="581.0" y="90" type="line" smooth="yes"/>
      <point x="649.0" y="90"/>
      <point x="692.0" y="125"/>
      <point x="692.0" y="181" type="curve" smooth="yes"/>
      <point x="692.0" y="264" type="line" smooth="yes"/>
      <point x="692.0" y="318"/>
      <point x="663.0" y="349"/>
      <point x="603.0" y="355" type="curve" smooth="yes"/>
      <point x="390.0" y="376" type="line" smooth="yes"/>
      <point x="346.0" y="380"/>
      <point x="319.0" y="407"/>
      <point x="319.0" y="447" type="curve" smooth="yes"/>
      <point x="319.0" y="539" type="line" smooth="yes"/>
      <point x="319.0" y="589"/>
      <point x="354.0" y="620"/>
      <point x="411.0" y="620" type="curve" smooth="yes"/>
      <point x="685.0" y="620" type="line"/>
    </contour>
  </outline>
</glyph>
<glyph name="Z.v" format="1">
  <advance width="1000"/>
  <unicode hex="FF3A"/>
  <outline>
    <contour>
      <point x="685.0" y="544" type="line" smooth="yes"/>
      <point x="696.0" y="555"/>
      <point x="702.0" y="566"/>
      <point x="702.0" y="581" type="curve" smooth="yes"/>
      <point x="702.0" y="597" type="line" smooth="yes"/>
      <point x="702.0" y="620"/>
      <point x="693.0" y="630"/>
      <point x="671.0" y="630" type="curve" smooth="yes"/>
      <point x="298.0" y="630" type="line"/>
      <point x="298.0" y="620" type="line"/>
      <point x="671.0" y="620" type="line" smooth="yes"/>
      <point x="682.0" y="620"/>
      <point x="692.0" y="616"/>
      <point x="692.0" y="597" type="curve" smooth="yes"/>
      <point x="692.0" y="583" type="line" smooth="yes"/>
      <point x="692.0" y="570"/>
      <point x="689.0" y="563"/>
      <point x="678.0" y="552" type="curve" smooth="yes"/>
      <point x="307.0" y="176" type="line"/>
      <point x="297.0" y="164"/>
      <point x="290.0" y="154"/>
      <point x="290.0" y="139" type="curve" smooth="yes"/>
      <point x="290.0" y="123" type="line" smooth="yes"/>
      <point x="290.0" y="100"/>
      <point x="299.0" y="90"/>
      <point x="321.0" y="90" type="curve" smooth="yes"/>
      <point x="710.0" y="90" type="line"/>
      <point x="710.0" y="100" type="line"/>
      <point x="321.0" y="100" type="line" smooth="yes"/>
      <point x="310.0" y="100"/>
      <point x="300.0" y="104"/>
      <point x="300.0" y="123" type="curve" smooth="yes"/>
      <point x="300.0" y="137" type="line" smooth="yes"/>
      <point x="300.0" y="150"/>
      <point x="304.0" y="156"/>
      <point x="314.0" y="168" type="curve"/>
    </contour>
  </outline>
</glyph>
<glyph name="AE.v" format="1">
  <advance width="1000"/>
  <outline>
    <contour>
      <point x="276.0" y="291" type="line" smooth="yes"/>
      <point x="276.0" y="328"/>
      <point x="276.0" y="353"/>
      <point x="287.0" y="379" type="curve" smooth="yes"/>
      <point x="371.0" y="582" type="line" smooth="yes"/>
      <point x="383.0" y="610"/>
      <point x="392.0" y="620"/>
      <point x="412.0" y="620" type="curve" smooth="yes"/>
      <point x="566.0" y="620" type="line"/>
      <point x="566.0" y="273" type="line"/>
      <point x="276.0" y="273" type="line"/>
    </contour>
    <contour>
      <point x="266.0" y="90" type="line"/>
      <point x="276.0" y="90" type="line"/>
      <point x="276.0" y="263" type="line"/>
      <point x="566.0" y="263" type="line"/>
      <point x="566.0" y="90" type="line"/>
      <point x="721.0" y="90" type="line"/>
      <point x="721.0" y="100" type="line"/>
      <point x="576.0" y="100" type="line"/>
      <point x="576.0" y="360" type="line"/>
      <point x="720.0" y="360" type="line"/>
      <point x="720.0" y="370" type="line"/>
      <point x="576.0" y="370" type="line"/>
      <point x="576.0" y="620" type="line"/>
      <point x="721.0" y="620" type="line"/>
      <point x="721.0" y="630" type="line"/>
      <point x="412.0" y="630" type="line" smooth="yes"/>
      <point x="388.0" y="630"/>
      <point x="375.0" y="621"/>
      <point x="361.0" y="586" type="curve" smooth="yes"/>
      <point x="277.0" y="383" type="line" smooth="yes"/>
      <point x="266.0" y="356"/>
      <point x="266.0" y="330"/>
      <point x="266.0" y="291" type="curve" smooth="yes"/>
    </contour>
  </outline>
</glyph>
<glyph name="Aring.salt_v" format="1">
  <advance width="1000"/>
  <outline>
    <contour>
      <point x="356.0" y="730" type="line" smooth="yes"/>
      <point x="356.0" y="670"/>
      <point x="378.0" y="630"/>
      <point x="497.0" y="630" type="curve" smooth="yes"/>
      <point x="616.0" y="630"/>
      <point x="640.0" y="670"/>
      <point x="640.0" y="730" type="curve" smooth="yes"/>
      <point x="640.0" y="770" type="line" smooth="yes"/>
      <point x="640.0" y="829"/>
      <point x="616.0" y="871"/>
      <point x="497.0" y="871" type="curve" smooth="yes"/>
      <point x="378.0" y="871"/>
      <point x="356.0" y="830"/>
      <point x="356.0" y="770" type="curve" smooth="yes"/>
    </contour>
    <contour>
      <point x="497.0" y="861" type="curve" smooth="yes"/>
      <point x="604.0" y="861"/>
      <point x="630.0" y="825"/>
      <point x="630.0" y="770" type="curve" smooth="yes"/>
      <point x="630.0" y="730" type="line" smooth="yes"/>
      <point x="630.0" y="674"/>
      <point x="604.0" y="640"/>
      <point x="497.0" y="640" type="curve" smooth="yes"/>
      <point x="390.0" y="640"/>
      <point x="366.0" y="674"/>
      <point x="366.0" y="730" type="curve" smooth="yes"/>
      <point x="366.0" y="770" type="line" smooth="yes"/>
      <point x="366.0" y="826"/>
      <point x="390.0" y="861"/>
    </contour>
    <contour>
      <point x="315.0" y="467" type="line" smooth="yes"/>
      <point x="315.0" y="542"/>
      <point x="350.0" y="592"/>
      <point x="499.0" y="592" type="curve" smooth="yes"/>
      <point x="646.0" y="592"/>
      <point x="683.0" y="542"/>
      <point x="683.0" y="467" type="curve" smooth="yes"/>
      <point x="683.0" y="261" type="line"/>
      <point x="315.0" y="261" type="line"/>
    </contour>
    <contour>
      <point x="683.0" y="90" type="line"/>
      <point x="693.0" y="90" type="line"/>
      <point x="693.0" y="467" type="line" smooth="yes"/>
      <point x="693.0" y="548"/>
      <point x="654.0" y="602"/>
      <point x="499.0" y="602" type="curve" smooth="yes"/>
      <point x="342.0" y="602"/>
      <point x="305.0" y="548"/>
      <point x="305.0" y="467" type="curve" smooth="yes"/>
      <point x="305.0" y="90" type="line"/>
      <point x="315.0" y="90" type="line"/>
      <point x="315.0" y="251" type="line"/>
      <point x="683.0" y="251" type="line"/>
    </contour>
  </outline>
</glyph>
<glyph name="E.s_v" format="1">
  <advance width="1000"/>
  <outline>
    <contour>
      <point x="701.0" y="100" type="line"/>
      <point x="318.0" y="100" type="line"/>
      <point x="318.0" y="339" type="line"/>
      <point x="620.0" y="339" type="line"/>
      <point x="620.0" y="349" type="line"/>
      <point x="318.0" y="349" type="line"/>
      <point x="318.0" y="580" type="line"/>
      <point x="701.0" y="580" type="line"/>
      <point x="701.0" y="590" type="line"/>
      <point x="308.0" y="590" type="line"/>
      <point x="308.0" y="90" type="line"/>
      <point x="701.0" y="90" type="line"/>
    </contour>
  </outline>
</glyph>
<glyph name="G.s_v" format="1">
  <advance width="1000"/>
  <outline>
    <contour>
      <point x="304.0" y="457" type="curve" smooth="yes"/>
      <point x="304.0" y="219" type="line" smooth="yes"/>
      <point x="304.0" y="126"/>
      <point x="337.0" y="90"/>
      <point x="484.0" y="90" type="curve" smooth="yes"/>
      <point x="692.0" y="90" type="line"/>
      <point x="692.0" y="291" type="line"/>
      <point x="682.0" y="291" type="line"/>
      <point x="682.0" y="100" type="line"/>
      <point x="484.0" y="100" type="line" smooth="yes"/>
      <point x="349.0" y="100"/>
      <point x="314.0" y="132"/>
      <point x="314.0" y="219" type="curve" smooth="yes"/>
      <point x="314.0" y="457" type="line" smooth="yes"/>
      <point x="314.0" y="546"/>
      <point x="346.0" y="578"/>
      <point x="464.0" y="578" type="curve" smooth="yes"/>
      <point x="645.0" y="578" type="line"/>
      <point x="645.0" y="588" type="line"/>
      <point x="464.0" y="588" type="line" smooth="yes"/>
      <point x="336.0" y="588"/>
      <point x="304.0" y="552"/>
    </contour>
  </outline>
</glyph>
<glyph name="I.salt" format="1">
  <advance width="371.0"/>
  <outline>
    <contour>
      <point x="181.0" y="630" type="line"/>
      <point x="181.0" y="90" type="line"/>
      <point x="191.0" y="90" type="line"/>
      <point x="191.0" y="630" type="line"/>
    </contour>
    <contour>
      <point x="185.0" y="747.0" type="move" name="top"/>
    </contour>
    <contour>
      <point x="185.0" y="0.0" type="move" name="bottom"/>
    </contour>
  </outline>
</glyph>
<glyph name="I.salt_s_v" format="1">
  <advance width="1000"/>
  <outline>
    <contour>
      <point x="495.0" y="590" type="line"/>
      <point x="495.0" y="90" type="line"/>
      <point x="505.0" y="90" type="line"/>
      <point x="505.0" y="590" type="line"/>
    </contour>
  </outline>
</glyph>
<glyph name="J.s_v" format="1">
  <advance width="1000"/>
  <outline>
    <contour>
      <point x="680.0" y="590" type="line"/>
      <point x="680.0" y="213" type="line" smooth="yes"/>
      <point x="680.0" y="138"/>
      <point x="639.0" y="88"/>
      <point x="501.0" y="88" type="curve" smooth="yes"/>
      <point x="356.0" y="88"/>
      <point x="314.0" y="137"/>
      <point x="314.0" y="213" type="curve" smooth="yes"/>
      <point x="314.0" y="297" type="line"/>
      <point x="304.0" y="297" type="line"/>
      <point x="304.0" y="213" type="line" smooth="yes"/>
      <point x="304.0" y="133"/>
      <point x="343.0" y="78"/>
      <point x="501.0" y="78" type="curve" smooth="yes"/>
      <point x="649.0" y="78"/>
      <point x="690.0" y="134"/>
      <point x="690.0" y="213" type="curve" smooth="yes"/>
      <point x="690.0" y="590" type="line"/>
    </contour>
  </outline>
</glyph>
<glyph name="M.salt" format="1">
  <advance width="1070"/>
  <outline>
    <contour>
      <point x="171.0" y="507" type="line" smooth="yes"/>
      <point x="171.0" y="582"/>
      <point x="212.0" y="632"/>
      <point x="351.0" y="632" type="curve" smooth="yes"/>
      <point x="490.0" y="632"/>
      <point x="530.0" y="582"/>
      <point x="530.0" y="507" type="curve" smooth="yes"/>
      <point x="530.0" y="90" type="line"/>
      <point x="540.0" y="90" type="line"/>
      <point x="540.0" y="507" type="line" smooth="yes"/>
      <point x="540.0" y="582"/>
      <point x="581.0" y="632"/>
      <point x="720.0" y="632" type="curve" smooth="yes"/>
      <point x="859.0" y="632"/>
      <point x="899.0" y="582"/>
      <point x="899.0" y="507" type="curve" smooth="yes"/>
      <point x="899.0" y="90" type="line"/>
      <point x="909.0" y="90" type="line"/>
      <point x="909.0" y="507" type="line" smooth="yes"/>
      <point x="909.0" y="588"/>
      <point x="867.0" y="642"/>
      <point x="720.0" y="642" type="curve" smooth="yes"/>
      <point x="598.0" y="642"/>
      <point x="549.0" y="605"/>
      <point x="535.0" y="546" type="curve"/>
      <point x="522.0" y="605"/>
      <point x="473.0" y="642"/>
      <point x="351.0" y="642" type="curve" smooth="yes"/>
      <point x="204.0" y="642"/>
      <point x="161.0" y="588"/>
      <point x="161.0" y="507" type="curve" smooth="yes"/>
      <point x="161.0" y="90" type="line"/>
      <point x="171.0" y="90" type="line"/>
    </contour>
    <contour>
      <point x="535.0" y="747.0" type="move" name="top"/>
    </contour>
    <contour>
      <point x="535.0" y="0.0" type="move" name="bottom"/>
    </contour>
  </outline>
</glyph>
<glyph name="T.s_v" format="1">
  <advance width="1000"/>
  <outline>
    <contour>
      <point x="495.0" y="90" type="line"/>
      <point x="505.0" y="90" type="line"/>
      <point x="505.0" y="580" type="line"/>
      <point x="710.0" y="580" type="line"/>
      <point x="710.0" y="590" type="line"/>
      <point x="290.0" y="590" type="line"/>
      <point x="290.0" y="580" type="line"/>
      <point x="495.0" y="580" type="line"/>
    </contour>
  </outline>
</glyph>
<glyph name="Y.salt_s_v" format="1">
  <advance width="1000"/>
  <outline>
    <contour>
      <point x="505.0" y="90" type="line"/>
      <point x="505.0" y="272" type="line"/>
      <point x="650.0" y="272"/>
      <point x="692.0" y="326"/>
      <point x="692.0" y="407" type="curve" smooth="yes"/>
      <point x="692.0" y="590" type="line"/>
      <point x="682.0" y="590" type="line"/>
      <point x="682.0" y="407" type="line" smooth="yes"/>
      <point x="682.0" y="332"/>
      <point x="642.0" y="282"/>
      <point x="500.0" y="282" type="curve" smooth="yes"/>
      <point x="358.0" y="282"/>
      <point x="319.0" y="332"/>
      <point x="319.0" y="407" type="curve" smooth="yes"/>
      <point x="319.0" y="590" type="line"/>
      <point x="309.0" y="590" type="line"/>
      <point x="309.0" y="407" type="line" smooth="yes"/>
      <point x="309.0" y="327"/>
      <point x="349.0" y="273"/>
      <point x="495.0" y="272" type="curve"/>
      <point x="495.0" y="90" type="line"/>
    </contour>
  </outline>
</glyph>
<glyph name="Y.salt_v" format="1">
  <advance width="1000"/>
  <outline>
    <contour>
      <point x="505.0" y="90" type="line"/>
      <point x="505.0" y="292" type="line"/>
      <point x="650.0" y="292"/>
      <point x="692.0" y="346"/>
      <point x="692.0" y="427" type="curve" smooth="yes"/>
      <point x="692.0" y="630" type="line"/>
      <point x="682.0" y="630" type="line"/>
      <point x="682.0" y="427" type="line" smooth="yes"/>
      <point x="682.0" y="352"/>
      <point x="642.0" y="302"/>
      <point x="500.0" y="302" type="curve" smooth="yes"/>
      <point x="358.0" y="302"/>
      <point x="319.0" y="352"/>
      <point x="319.0" y="427" type="curve" smooth="yes"/>
      <point x="319.0" y="630" type="line"/>
      <point x="309.0" y="630" type="line"/>
      <point x="309.0" y="427" type="line" smooth="yes"/>
      <point x="309.0" y="347"/>
      <point x="349.0" y="293"/>
      <point x="495.0" y="292" type="curve"/>
      <point x="495.0" y="90" type="line"/>
    </contour>
    <contour>
      <point x="500.0" y="747.0" type="move" name="top"/>
    </contour>
    <contour>
      <point x="500.0" y="0.0" type="move" name="bottom"/>
    </contour>
  </outline>
</glyph>
<glyph name=".notdef" format="1">
  <advance width="1000.0"/>
  <outline>
    <contour>
      <point x="120.0" y="-20" type="line"/>
      <point x="880.0" y="-20" type="line"/>
      <point x="880.0" y="740" type="line"/>
      <point x="120.0" y="740" type="line"/>
    </contour>
    <contour>
      <point x="870.0" y="-10" type="line"/>
      <point x="130.0" y="-10" type="line"/>
      <point x="130.0" y="730" type="line"/>
      <point x="870.0" y="730" type="line"/>
    </contour>
  </outline>
</glyph>
<glyph name="arrowleft.chevron" format="1">
  <advance width="1330"/>
  <outline>
    <contour>
      <point x="593.0" y="-330" type="curve" smooth="yes"/>
      <point x="603.0" y="-330"/>
      <point x="611.0" y="-322"/>
      <point x="611.0" y="-312" type="curve" smooth="yes"/>
      <point x="611.0" y="-160" type="line"/>
      <point x="1313.0" y="-160" type="line"/>
      <point x="1107.0" y="360" type="line"/>
      <point x="1313.0" y="880" type="line"/>
      <point x="611.0" y="880" type="line"/>
      <point x="611.0" y="1040" type="line"/>
      <point x="611.0" y="1050"/>
      <point x="604.0" y="1058"/>
      <point x="595.0" y="1058" type="curve" smooth="yes"/>
      <point x="586.0" y="1058"/>
      <point x="576.0" y="1052"/>
      <point x="567.0" y="1039" type="curve"/>
      <point x="50.0" y="408" type="line" smooth="yes"/>
      <point x="36.0" y="390"/>
      <point x="27.0" y="376"/>
      <point x="27.0" y="361" type="curve" smooth="yes"/>
      <point x="27.0" y="346"/>
      <point x="36.0" y="332"/>
      <point x="51.0" y="313" type="curve" smooth="yes"/>
      <point x="566.0" y="-316" type="line" smooth="yes"/>
      <point x="574.0" y="-326"/>
      <point x="584.0" y="-330"/>
    </contour>
    <contour>
      <point x="593.0" y="-320" type="curve" smooth="yes"/>
      <point x="586.0" y="-320"/>
      <point x="580.0" y="-316"/>
      <point x="574.0" y="-310" type="curve" smooth="yes"/>
      <point x="59.0" y="319" type="line" smooth="yes"/>
      <point x="46.0" y="336"/>
      <point x="37.0" y="348"/>
      <point x="37.0" y="361" type="curve" smooth="yes"/>
      <point x="37.0" y="374"/>
      <point x="46.0" y="386"/>
      <point x="58.0" y="402" type="curve" smooth="yes"/>
      <point x="575.0" y="1033" type="line"/>
      <point x="582.0" y="1042"/>
      <point x="588.0" y="1048"/>
      <point x="595.0" y="1048" type="curve" smooth="yes"/>
      <point x="598.0" y="1048"/>
      <point x="601.0" y="1044"/>
      <point x="601.0" y="1040" type="curve" smooth="yes"/>
      <point x="601.0" y="870" type="line"/>
      <point x="1298.0" y="870" type="line"/>
      <point x="1096.0" y="360" type="line"/>
      <point x="1298.0" y="-150" type="line"/>
      <point x="601.0" y="-150" type="line"/>
      <point x="601.0" y="-312" type="line"/>
      <point x="601.0" y="-316"/>
      <point x="597.0" y="-320"/>
    </contour>
  </outline>
</glyph>
<glyph name="quoteleft.salt" format="1">
  <advance width="307.119931271"/>
  <outline>
    <contour>
      <point x="202.0" y="534" type="line"/>
      <point x="114.0" y="534" type="line"/>
      <point x="114.0" y="610" type="line" smooth="yes"/>
      <point x="114.0" y="643"/>
      <point x="127.0" y="674"/>
      <point x="160.0" y="674" type="curve" smooth="yes"/>
      <point x="201.0" y="674" type="line"/>
      <point x="201.0" y="684" type="line"/>
      <point x="160.0" y="684" type="line" smooth="yes"/>
      <point x="121.0" y="684"/>
      <point x="104.0" y="649"/>
      <point x="104.0" y="610" type="curve" smooth="yes"/>
      <point x="104.0" y="524" type="line"/>
      <point x="202.0" y="524" type="line"/>
    </contour>
  </outline>
</glyph>
<glyph name="quoteright.salt_v" format="1">
  <advance width="1000"/>
  <outline>
    <contour>
      <point x="251.0" y="406" type="line"/>
      <point x="339.0" y="406" type="line"/>
      <point x="339.0" y="330" type="line" smooth="yes"/>
      <point x="339.0" y="297"/>
      <point x="326.0" y="266"/>
      <point x="293.0" y="266" type="curve" smooth="yes"/>
      <point x="252.0" y="266" type="line"/>
      <point x="252.0" y="256" type="line"/>
      <point x="293.0" y="256" type="line" smooth="yes"/>
      <point x="332.0" y="256"/>
      <point x="349.0" y="291"/>
      <point x="349.0" y="330" type="curve" smooth="yes"/>
      <point x="349.0" y="416" type="line"/>
      <point x="251.0" y="416" type="line"/>
    </contour>
  </outline>
</glyph>
<glyph name="uni21AB.v_arrow" format="1">
  <advance width="1335"/>
  <outline>
    <contour>
      <point x="1178.0" y="900" type="line"/>
      <point x="1178.0" y="601" type="line" smooth="yes"/>
      <point x="1178.0" y="177"/>
      <point x="937.0" y="-103"/>
      <point x="408.0" y="-103" type="curve" smooth="yes"/>
      <point x="-10.0" y="-103" type="line"/>
      <point x="-10.0" y="-287" type="line" smooth="yes"/>
      <point x="-10.0" y="-291"/>
      <point x="-11.0" y="-293"/>
      <point x="-15.0" y="-293" type="curve" smooth="yes"/>
      <point x="-21.0" y="-293"/>
      <point x="-30.0" y="-285"/>
      <point x="-38.0" y="-276" type="curve" smooth="yes"/>
      <point x="-554.0" y="273" type="line" smooth="yes"/>
      <point x="-567.0" y="287"/>
      <point x="-576.0" y="299"/>
      <point x="-576.0" y="313" type="curve" smooth="yes"/>
      <point x="-576.0" y="326"/>
      <point x="-568.0" y="338"/>
      <point x="-554.0" y="353" type="curve" smooth="yes"/>
      <point x="-38.0" y="893" type="line" smooth="yes"/>
      <point x="-31.0" y="900"/>
      <point x="-22.0" y="910"/>
      <point x="-16.0" y="910" type="curve" smooth="yes"/>
      <point x="-12.0" y="910"/>
      <point x="-10.0" y="908"/>
      <point x="-10.0" y="904" type="curve" smooth="yes"/>
      <point x="-10.0" y="737" type="line"/>
      <point x="67.0" y="737" type="line" smooth="yes"/>
      <point x="132.0" y="737"/>
      <point x="158.0" y="765"/>
      <point x="158.0" y="841" type="curve" smooth="yes"/>
      <point x="158.0" y="900" type="line"/>
      <point x="148.0" y="900" type="line"/>
      <point x="148.0" y="841" type="line" smooth="yes"/>
      <point x="148.0" y="773"/>
      <point x="126.0" y="747"/>
      <point x="67.0" y="747" type="curve" smooth="yes"/>
      <point x="0.0" y="747" type="line"/>
      <point x="0.0" y="904" type="line" smooth="yes"/>
      <point x="0.0" y="913"/>
      <point x="-7.0" y="920"/>
      <point x="-16.0" y="920" type="curve" smooth="yes"/>
      <point x="-29.0" y="920"/>
      <point x="-37.0" y="909"/>
      <point x="-46.0" y="901" type="curve" smooth="yes"/>
      <point x="-562.0" y="359" type="line" smooth="yes"/>
      <point x="-578.0" y="342"/>
      <point x="-586.0" y="328"/>
      <point x="-586.0" y="313" type="curve" smooth="yes"/>
      <point x="-586.0" y="297"/>
      <point x="-577.0" y="283"/>
      <point x="-562.0" y="267" type="curve" smooth="yes"/>
      <point x="-46.0" y="-282" type="line" smooth="yes"/>
      <point x="-38.0" y="-291"/>
      <point x="-25.0" y="-303"/>
      <point x="-15.0" y="-303" type="curve" smooth="yes"/>
      <point x="-6.0" y="-303"/>
      <point x="0.0" y="-296"/>
      <point x="0.0" y="-287" type="curve" smooth="yes"/>
      <point x="0.0" y="-113" type="line"/>
      <point x="408.0" y="-113" type="line" smooth="yes"/>
      <point x="945.0" y="-113"/>
      <point x="1188.0" y="171"/>
      <point x="1188.0" y="601" type="curve" smooth="yes"/>
      <point x="1188.0" y="900" type="line"/>
    </contour>
  </outline>
</glyph>
<glyph name="uni25D7.rounded" format="1">
  <advance width="350"/>
  <outline>
    <contour>
      <point x="-40.0" y="870" type="line"/>
      <point x="25.0" y="870" type="line" smooth="yes"/>
      <point x="170.0" y="870"/>
      <point x="250.0" y="743"/>
      <point x="250.0" y="360" type="curve" smooth="yes"/>
      <point x="250.0" y="-23"/>
      <point x="170.0" y="-150"/>
      <point x="25.0" y="-150" type="curve" smooth="yes"/>
      <point x="-40.0" y="-150" type="line"/>
      <point x="-40.0" y="-160" type="line"/>
      <point x="25.0" y="-160" type="line" smooth="yes"/>
      <point x="172.0" y="-160"/>
      <point x="260.0" y="-40"/>
      <point x="260.0" y="360" type="curve" smooth="yes"/>
      <point x="260.0" y="760"/>
      <point x="172.0" y="880"/>
      <point x="25.0" y="880" type="curve" smooth="yes"/>
      <point x="-40.0" y="880" type="line"/>
    </contour>
  </outline>
</glyph>
<glyph name="uni2B1B.chevron_e" format="1">
  <advance width="1280.0"/>
  <outline>
    <contour>
      <point x="33.0" y="-160" type="curve" smooth="yes"/>
      <point x="1035.0" y="-160" type="line" smooth="yes"/>
      <point x="1049.0" y="-160"/>
      <point x="1056.0" y="-154"/>
      <point x="1063.0" y="-137" type="curve" smooth="yes"/>
      <point x="1252.0" y="337" type="line"/>
      <point x="1256.0" y="350"/>
      <point x="1256.0" y="367"/>
      <point x="1252.0" y="380" type="curve"/>
      <point x="1063.0" y="857" type="line" smooth="yes"/>
      <point x="1056.0" y="874"/>
      <point x="1049.0" y="880"/>
      <point x="1035.0" y="880" type="curve" smooth="yes"/>
      <point x="37.0" y="880" type="line" smooth="yes"/>
      <point x="25.0" y="880"/>
      <point x="18.0" y="876"/>
      <point x="21.0" y="867" type="curve" smooth="yes"/>
      <point x="222.0" y="360" type="line"/>
      <point x="21.0" y="-148" type="line"/>
      <point x="18.0" y="-155"/>
      <point x="21.0" y="-160"/>
    </contour>
    <contour>
      <point x="233.0" y="360" type="line"/>
      <point x="233.0" y="362" type="line"/>
      <point x="31.0" y="870" type="line"/>
      <point x="1035.0" y="870" type="line"/>
      <point x="1045.0" y="870"/>
      <point x="1050.0" y="862"/>
      <point x="1053.0" y="853" type="curve" smooth="yes"/>
      <point x="1242.0" y="376" type="line"/>
      <point x="1246.0" y="365"/>
      <point x="1246.0" y="352"/>
      <point x="1242.0" y="341" type="curve"/>
      <point x="1053.0" y="-133" type="line" smooth="yes"/>
      <point x="1050.0" y="-142"/>
      <point x="1045.0" y="-150"/>
      <point x="1035.0" y="-150" type="curve" smooth="yes"/>
      <point x="32.0" y="-150" type="line"/>
    </contour>
  </outline>
</glyph>
<glyph name="uni2B1B.semichevron_e" format="1">
  <advance width="650.0"/>
  <outline>
    <contour>
      <point x="690.0" y="870" type="line"/>
      <point x="690.0" y="880" type="line"/>
      <point x="35.0" y="880" type="line" smooth="yes"/>
      <point x="22.0" y="880"/>
      <point x="18.0" y="869"/>
      <point x="23.0" y="855" type="curve" smooth="yes"/>
      <point x="220.0" y="360" type="line"/>
      <point x="217.0" y="353" type="line"/>
      <point x="25.0" y="-131" type="line" smooth="yes"/>
      <point x="20.0" y="-144"/>
      <point x="21.0" y="-160"/>
      <point x="35.0" y="-160" type="curve" smooth="yes"/>
      <point x="690.0" y="-160" type="line"/>
      <point x="690.0" y="-150" type="line"/>
      <point x="35.0" y="-150" type="line" smooth="yes"/>
      <point x="27.0" y="-150"/>
      <point x="34.0" y="-136"/>
      <point x="35.0" y="-135" type="curve" smooth="yes"/>
      <point x="227.0" y="349" type="line"/>
      <point x="231.0" y="360" type="line"/>
      <point x="231.0" y="362" type="line"/>
      <point x="33.0" y="859" type="line" smooth="yes"/>
      <point x="32.0" y="861"/>
      <point x="28.0" y="870"/>
      <point x="35.0" y="870" type="curve" smooth="yes"/>
    </contour>
  </outline>
</glyph>
